<svg xmlns="http://www.w3.org/2000/svg" width="1024" height="1024" viewBox="0 0 1024 1024" version="1.1"><path d="M 485.500 55.742 C 473.351 56.162, 449.121 58.984, 431.500 62.032 C 375.085 71.789, 315.958 95.152, 267.500 126.833 C 226.314 153.759, 180.819 196.940, 151.427 237 C 128.446 268.322, 109.674 301.646, 96.784 334 C 80.163 375.721, 70.286 417.435, 64.465 470.500 C 63.176 482.247, 63.806 531.028, 65.470 548.276 C 70.996 605.572, 89.055 663.774, 117.731 716.708 C 121.454 723.580, 124.950 729.954, 125.500 730.872 C 126.050 731.790, 127.811 734.782, 129.414 737.520 C 139.144 754.147, 154.791 776.261, 169.376 794 C 180.982 808.116, 218.343 844.745, 232.981 856.359 C 259.658 877.526, 283.407 892.671, 313 907.388 C 356.114 928.830, 397.201 941.935, 446.563 949.989 C 473.460 954.378, 522.225 956.022, 549.500 953.460 C 643.818 944.598, 727.320 909.679, 800.469 848.509 C 822.060 830.454, 849.962 801.173, 868.134 777.500 C 887.091 752.804, 911.202 711.398, 924.035 681.500 C 935.504 654.779, 948.303 611.839, 953.420 582.914 C 956.374 566.214, 956.495 564.631, 954.750 565.515 C 954.063 565.863, 954.230 565.545, 955.123 564.807 C 960.581 560.295, 961.897 495.474, 957.443 450.500 C 955.982 435.744, 948.249 394.469, 946.016 389.500 C 945.521 388.400, 944.809 385.925, 944.433 384 C 942.434 373.757, 931.244 342.239, 923.415 324.799 C 910.962 297.061, 897.637 273.110, 881.313 249.123 C 869.826 232.244, 853.774 212.031, 852.250 212.529 C 851.554 212.756, 851 212.119, 851 211.089 C 851 208.743, 823.401 180.158, 807.924 166.474 C 782.662 144.138, 756.228 125.448, 729.260 110.856 C 716.921 104.180, 694.992 93.359, 689.081 91.030 C 686.100 89.856, 681.737 88.019, 679.385 86.948 C 674.426 84.689, 672.351 84.414, 676 86.500 C 677.602 87.416, 677.940 87.942, 676.941 87.965 C 675.223 88.004, 670.894 85.107, 672.500 84.993 C 675.176 84.803, 648.414 75.621, 635 72.126 C 632.525 71.481, 626.450 69.861, 621.500 68.526 C 582.871 58.109, 538.289 53.918, 485.500 55.742 M 481.500 67.606 C 380.218 75.008, 289.026 114.226, 215 182.220 C 208.675 188.029, 200.575 196.082, 197 200.115 C 193.425 204.148, 187.642 210.582, 184.150 214.412 C 172 227.736, 155.156 249.968, 144.307 267 C 142.380 270.025, 140.007 273.639, 139.033 275.031 C 135.448 280.158, 119.954 309.156, 114.921 320.157 C 98.141 356.835, 85.421 400.148, 79.579 440.500 C 75.353 469.693, 74.759 479.683, 75.304 512.500 C 75.806 542.739, 76.294 549.086, 79.955 573 C 81.265 581.557, 85.259 600.223, 88.545 613.144 C 101.043 662.293, 125.775 715.269, 156.248 758.164 C 196.064 814.209, 252.650 863.864, 310.286 893.334 C 317.257 896.898, 319.702 898.604, 318.786 899.263 C 317.889 899.909, 318.071 900.003, 319.386 899.573 C 320.555 899.192, 324.549 900.530, 329.886 903.089 C 357.555 916.357, 401.184 930.423, 432 936.009 C 480.943 944.880, 521.076 946.066, 566.500 939.981 C 663.083 927.044, 750.802 883.971, 818.992 816 C 854.781 780.326, 881.881 742.673, 903.401 698.725 C 915.247 674.534, 921.375 659.271, 928.389 636.491 C 943.548 587.261, 948.992 551.839, 948.998 502.411 C 949.005 433.251, 933.296 366.740, 902.962 307.500 C 874.226 251.380, 839.425 208.243, 787.500 164.381 C 777.657 156.066, 750.127 136.800, 735.844 128.230 C 685.370 97.946, 625.900 77.557, 567 70.343 C 559.025 69.366, 552.275 68.327, 552 68.033 C 551.431 67.426, 489.131 67.049, 481.500 67.606 M 476.021 92.475 C 474.952 93.763, 474.823 98.747, 475.369 117.790 C 475.743 130.830, 476.237 143.525, 476.467 146 C 476.698 148.475, 476.888 152.675, 476.890 155.333 C 476.894 160.841, 478.217 163, 481.587 163 C 485.480 163, 485.898 160.588, 485.060 142.963 C 484.630 133.908, 484.328 126.428, 484.389 126.340 C 484.450 126.252, 489.359 128.619, 495.298 131.599 C 504.215 136.075, 506.447 136.831, 508.108 135.942 C 509.491 135.202, 510.023 134.057, 509.810 132.278 C 509.501 129.701, 506.279 127.559, 488.889 118.372 C 484.331 115.964, 484.271 115.865, 483.637 109.803 C 483.285 106.430, 483.155 103.512, 483.349 103.318 C 483.542 103.124, 486.158 104.436, 489.162 106.233 C 492.165 108.030, 497.432 110.832, 500.866 112.460 C 507.770 115.733, 510.500 115.289, 510.500 110.891 C 510.500 108.961, 509.055 107.679, 503 104.242 C 498.875 101.900, 494.943 100.196, 494.262 100.456 C 493.581 100.715, 493.131 100.522, 493.262 100.025 C 493.537 98.983, 482.755 92.228, 479.522 91.416 C 478.197 91.084, 476.833 91.496, 476.021 92.475 M 576.009 95.489 C 575.309 96.332, 573.463 104.298, 571.906 113.190 C 570.350 122.083, 568.849 129.952, 568.570 130.679 C 568.291 131.406, 568.611 132.007, 569.281 132.015 C 570.158 132.026, 570.183 132.237, 569.372 132.765 C 568.751 133.169, 567.233 139.911, 565.997 147.748 C 563.573 163.126, 563.845 165, 568.500 165 C 571.933 165, 573.087 162.805, 574.131 154.292 C 575.570 142.559, 575.843 141.625, 577.442 142.952 C 578.601 143.914, 588.378 159.538, 591.491 165.402 C 593.096 168.427, 595.706 169.674, 597.750 168.393 C 601.426 166.088, 601.043 164.879, 590.723 146.206 L 586.139 137.911 593.320 132.652 C 597.269 129.760, 601.962 126.374, 603.750 125.128 C 605.538 123.883, 607 122.014, 607 120.974 C 607 119.911, 603.394 115.644, 598.750 111.211 C 580.996 94.267, 578.471 92.522, 576.009 95.489 M 580.956 109.626 C 580.932 111.757, 580.485 115.525, 579.962 118 C 579.439 120.475, 578.733 124.960, 578.393 127.966 C 577.880 132.501, 578.007 133.245, 579.138 132.334 C 579.887 131.730, 583.650 128.875, 587.500 125.989 C 591.350 123.103, 594.619 120.444, 594.764 120.079 C 594.909 119.714, 591.872 116.341, 588.014 112.584 L 581 105.753 580.956 109.626 M 378.009 112.489 C 376.547 114.250, 376.751 115.526, 382.091 138 C 387.666 161.462, 388.983 166.190, 390.694 168.873 C 391.526 170.178, 391.693 170.928, 391.064 170.539 C 389.584 169.625, 390.671 174.592, 392.642 177.750 C 394.266 180.352, 395.834 180.573, 398.554 178.584 C 400.438 177.206, 400.445 176.956, 398.800 169.334 C 397.871 165.025, 396.267 158.094, 395.236 153.931 L 393.361 146.361 405.875 151.303 C 419.290 156.601, 421.219 156.644, 421.815 151.664 C 422.175 148.651, 422.127 148.623, 404.500 141.869 C 398.450 139.551, 392.790 137.058, 391.922 136.328 C 390.609 135.224, 388 127.021, 388 123.997 C 388 123.530, 393.482 125.364, 400.182 128.074 C 406.882 130.783, 412.902 133, 413.560 133 C 415.578 133, 417.255 130.149, 416.640 127.763 C 416.167 125.930, 413.248 124.376, 401.278 119.583 C 393.150 116.329, 385.790 113.066, 384.921 112.333 C 382.829 110.566, 379.543 110.641, 378.009 112.489 M 670.400 121.765 C 667.874 123.452, 667.297 127.354, 667.194 143.414 C 667.135 152.717, 666.700 160.592, 666.227 160.914 C 651.542 170.920, 640 180.389, 640 182.430 C 640 183.123, 640.902 184.506, 642.004 185.504 C 644.619 187.871, 645.917 187.256, 658.658 177.613 C 664.190 173.426, 668.944 170, 669.223 170 C 669.502 170, 670.057 176.188, 670.456 183.750 C 670.855 191.313, 671.645 198.063, 672.213 198.750 C 672.781 199.438, 674.288 200, 675.563 200 C 676.839 200, 678.246 199.438, 678.691 198.750 C 679.136 198.063, 679.500 189.426, 679.500 179.557 L 679.500 161.615 685.500 157.280 C 688.800 154.895, 694.789 150.676, 698.808 147.903 C 702.828 145.130, 706.365 142.213, 706.668 141.423 C 707.338 139.676, 704.446 135, 702.695 135 C 701.452 135, 683.433 147.491, 679.436 151.124 C 678.300 152.156, 677.065 153, 676.690 153 C 676.316 153, 676.101 146.521, 676.212 138.602 C 676.364 127.848, 676.079 123.800, 675.085 122.602 C 673.649 120.872, 672.141 120.603, 670.400 121.765 M 289.243 154.157 C 287.340 156.060, 287.722 158.194, 291.116 164.609 C 295.246 172.417, 318.955 212.019, 320.835 214.250 C 322.769 216.545, 324.540 216.460, 327.045 213.955 L 329.090 211.910 324.936 204.383 L 320.781 196.857 324.985 184.809 C 328.632 174.357, 328.999 172.571, 327.758 171.329 C 326.965 170.536, 321.081 169.056, 314.557 168.009 C 308.083 166.970, 302.506 165.840, 302.164 165.497 C 301.822 165.155, 300.182 162.315, 298.521 159.187 C 295.373 153.260, 291.979 151.421, 289.243 154.157 M 307.240 175.926 C 307.398 176.242, 309.070 178.892, 310.954 181.815 L 314.380 187.131 316.225 182.434 C 317.240 179.850, 317.823 177.489, 317.521 177.187 C 316.761 176.427, 306.882 175.216, 307.240 175.926 M 484.500 180.686 C 446.152 183.179, 393.761 198.157, 362 215.708 C 329.903 233.444, 306.268 251.511, 281 277.625 C 266.715 292.388, 259.419 301.096, 248.845 316 C 233.048 338.267, 215.339 370.137, 216.491 374.228 C 216.913 375.726, 216.823 376.057, 216.226 375.201 C 215.592 374.291, 214.375 376.296, 212.161 381.900 C 210.422 386.300, 209 390.378, 209 390.963 C 209 391.548, 208.558 392.809, 208.018 393.764 C 204.811 399.436, 197.122 428.656, 194.141 446.500 C 189.564 473.899, 188.362 508.183, 191.039 535 C 198.915 613.881, 238.384 691.162, 298 744.428 C 345.360 786.743, 396.957 811.418, 459 821.423 C 488.588 826.194, 508.816 827.099, 537.500 824.936 C 648.066 816.599, 746.306 750.680, 798.234 649.984 C 817.058 613.481, 829.051 571.842, 833.070 529.030 C 835.455 503.621, 833.392 467, 828.029 439.531 C 816.221 379.054, 784.294 319.201, 740.527 275.492 C 724.768 259.753, 713.201 250.166, 694.961 237.725 C 675.004 224.113, 644.911 208.221, 626 201.308 C 622.975 200.202, 618.250 198.472, 615.500 197.463 C 612.750 196.454, 609.060 195.632, 607.300 195.637 C 605.541 195.642, 604.309 195.309, 604.563 194.898 C 606.122 192.376, 558.893 182.874, 535.605 181.024 C 523.759 180.083, 496.536 179.903, 484.500 180.686 M 763.741 188.250 C 761.264 191.137, 751.752 201.825, 742.603 212 C 728.080 228.150, 726.001 230.881, 726.233 233.500 C 726.459 236.041, 726.966 236.546, 729.548 236.798 C 732.332 237.071, 733.547 235.999, 743.548 224.453 L 754.500 211.810 760.500 212.451 C 763.800 212.803, 770.489 213.768, 775.365 214.596 C 783.582 215.991, 784.368 215.977, 786.115 214.396 C 788.283 212.434, 788.565 209.700, 786.750 208.236 C 786.063 207.682, 780.775 206.449, 775 205.498 C 769.225 204.546, 764.151 203.561, 763.725 203.310 C 763.299 203.058, 765.662 199.709, 768.975 195.869 C 775.022 188.860, 776.028 186.428, 773.800 184.200 C 771.324 181.724, 768.289 182.946, 763.741 188.250 M 501.100 189.250 L 501 192 493.250 192.051 C 488.988 192.079, 483.475 192.314, 481 192.573 C 432.263 197.678, 391.386 211.144, 351.896 235.104 C 330.007 248.384, 307.955 266.115, 288.434 286.129 C 236.190 339.694, 206.664 406.438, 201.562 482.500 C 196.842 552.882, 218.013 626.277, 259.830 684.500 C 274.020 704.256, 295.246 727.205, 313 741.985 C 323.239 750.508, 348.346 768.576, 354.050 771.526 C 355.618 772.337, 357.260 773.562, 357.700 774.250 C 358.140 774.937, 358.950 775.512, 359.500 775.526 C 360.050 775.540, 368.174 779.398, 377.554 784.099 C 399.519 795.107, 430.235 805.463, 451 808.861 C 472.297 812.346, 478.343 813.156, 490.275 814.122 C 518.100 816.374, 551.929 813.840, 580.500 807.363 C 601.462 802.611, 631.220 791.940, 650.466 782.275 C 692.356 761.239, 733.203 726.621, 761.706 688 C 777.348 666.805, 790.894 642.234, 801.401 616 C 804.789 607.541, 807.280 602.614, 808.073 602.806 C 809.038 603.040, 809.067 602.785, 808.195 601.735 C 807.321 600.682, 807.627 598.487, 809.491 592.417 C 818.981 561.516, 823.774 524.561, 822.665 490.851 C 821.109 443.524, 807.566 394.575, 784.507 352.924 C 781.451 347.405, 779.256 342.394, 779.630 341.790 C 780.003 341.186, 779.856 340.971, 779.302 341.313 C 778.749 341.655, 774.625 336.406, 770.138 329.647 C 733.051 273.791, 673.858 229.037, 608.500 207.441 C 578.229 197.438, 550.317 192.504, 518 191.443 C 503.066 190.952, 502.476 190.853, 501.850 188.717 C 501.259 186.705, 501.190 186.754, 501.100 189.250 M 229.500 214.713 C 219.393 215.664, 207.541 218.030, 206.208 219.363 C 205.320 220.252, 204.972 221.753, 205.327 223.168 C 205.650 224.454, 212.775 232.704, 221.161 241.503 C 245.764 267.316, 250.550 272, 252.323 272 C 253.245 272, 254.910 271.090, 256.023 269.977 C 257.727 268.273, 257.859 267.603, 256.859 265.727 C 256.206 264.502, 247.758 255.259, 238.086 245.188 C 228.414 235.116, 220.378 226.537, 220.228 226.123 C 220.079 225.709, 224.340 224.858, 229.698 224.231 L 239.439 223.091 252.470 235.761 C 259.636 242.730, 266.272 249.199, 267.216 250.137 C 271.387 254.285, 277 253.089, 277 248.054 C 277 246.030, 276.037 244.377, 273.750 242.475 C 271.962 240.988, 264.547 233.973, 257.271 226.886 L 244.042 214 238.771 214.168 C 235.872 214.261, 231.700 214.506, 229.500 214.713 M 822.441 266.447 C 813.673 272.193, 802.178 279.606, 796.895 282.920 C 784.911 290.438, 784.235 291.184, 786.405 294.495 C 787.308 295.873, 788.869 297, 789.874 297 C 791.496 297, 813.939 282.990, 826 274.448 C 828.475 272.696, 831.492 270.748, 832.704 270.120 C 834.851 269.008, 834.897 269.102, 834.468 273.739 C 833.150 288, 833.205 294.063, 834.666 295.523 C 838.688 299.545, 841.587 295.411, 842.394 284.500 C 842.720 280.100, 843.280 272.575, 843.640 267.779 C 844.326 258.602, 843.537 256, 840.068 256 C 839.140 256, 831.208 260.701, 822.441 266.447 M 509 269.812 C 509 271.055, 491.767 282.006, 480 288.240 C 460.229 298.716, 436.484 306.060, 406.621 310.937 C 396.654 312.564, 384.371 314.200, 379.325 314.571 L 370.149 315.246 369.747 322.873 C 369.004 336.952, 369.232 379.391, 370.110 390.500 C 372.322 418.466, 378.537 448.618, 386.481 469.926 C 392.227 485.336, 393.046 486.997, 394.911 487.015 C 396.214 487.028, 396.250 487.189, 395.109 487.912 C 393.993 488.618, 394.853 490.946, 399.442 499.646 C 409.407 518.539, 420.315 533.266, 434.465 546.930 C 440.656 552.909, 442.357 554.081, 443.174 552.930 C 443.990 551.780, 444.079 551.841, 443.628 553.244 C 442.571 556.531, 469.029 575.420, 494.988 589.912 C 502.957 594.360, 510.314 598, 511.338 598 C 514.051 598, 537.448 585.063, 552.500 575.240 C 566.476 566.119, 575.650 559.208, 583.324 552.019 C 585.976 549.534, 588.518 547.365, 588.972 547.200 C 590.447 546.665, 605.587 528.712, 611.383 520.625 C 626.872 499.018, 639.314 470.642, 645.858 442 C 652.886 411.244, 656.535 361.391, 654.360 325.845 L 653.719 315.378 641.110 314.229 C 595.091 310.033, 553.263 296.256, 521.760 274.920 C 513.858 269.567, 509 267.623, 509 269.812 M 166.308 293.988 C 147.885 302.913, 146.868 306.132, 160.288 313.051 C 164.805 315.379, 173.263 320.370, 179.083 324.142 C 184.904 327.914, 189.990 331, 190.385 331 C 190.781 331, 194.711 332.800, 199.119 334.999 C 208.216 339.539, 211 339.299, 211 333.974 C 211 331.225, 210.282 330.659, 200.750 325.894 C 195.113 323.076, 190.374 320.658, 190.220 320.522 C 190.066 320.385, 189.061 314.474, 187.986 307.387 C 186.912 300.299, 185.658 293.150, 185.200 291.500 C 183.877 286.731, 180.324 287.199, 166.308 293.988 M 170.500 301.550 C 167.750 302.866, 165.569 304.249, 165.653 304.622 C 165.832 305.414, 179.198 314.136, 179.606 313.727 C 180.378 312.955, 177.490 299.011, 176.572 299.079 C 175.983 299.122, 173.250 300.234, 170.500 301.550 M 853.037 337.688 C 852.456 338.685, 847.883 347.804, 842.874 357.954 C 833.545 376.859, 833.291 377.888, 837.317 380.428 C 838.504 381.177, 839.496 381.177, 840.683 380.428 C 842.771 379.111, 842.472 379.650, 851.287 361.342 L 858.585 346.184 875.042 354.588 C 884.094 359.210, 892.007 362.993, 892.628 362.996 C 894.626 363.003, 896.242 360.099, 895.619 357.618 C 895.135 355.691, 891.370 353.343, 876.757 345.855 C 866.716 340.710, 857.509 336.360, 856.297 336.188 C 854.978 336.001, 853.670 336.603, 853.037 337.688 M 450.934 348.297 C 445.453 349.717, 445.281 351.113, 444.671 399 C 444.063 446.780, 444.144 447.691, 449.888 457.168 C 453.713 463.480, 467.156 480.447, 473.816 487.369 C 482.661 496.563, 508.671 517, 511.526 517 C 512.702 517, 525.527 507.594, 530.262 503.258 C 532.974 500.774, 535.516 499.201, 536.167 499.603 C 536.797 499.993, 537.038 499.870, 536.704 499.330 C 536.371 498.792, 539.496 495.010, 543.647 490.926 C 559.544 475.288, 572.518 457.642, 575.527 447.568 C 576.724 443.560, 577 434.647, 577 399.943 C 577 376.462, 576.713 355.813, 576.361 354.057 C 575.043 347.463, 577.082 347.670, 512.422 347.581 C 480.296 347.536, 452.626 347.859, 450.934 348.297 M 122.200 373.200 C 120.207 375.193, 120.788 377.547, 125.722 387.479 L 130.443 396.984 126.972 399.923 C 125.062 401.539, 120.495 404.805, 116.823 407.181 C 113.151 409.556, 109.927 411.998, 109.660 412.607 C 108.628 414.952, 111.530 418.471, 115.023 419.108 C 120.128 420.040, 146.026 426.724, 157 429.942 C 162.225 431.474, 168.188 433.034, 170.251 433.409 C 173.646 434.026, 174.116 433.838, 175.215 431.428 C 176.272 429.108, 176.168 428.555, 174.406 427.133 C 173.293 426.235, 166.617 423.947, 159.569 422.048 C 148.117 418.963, 146.660 418.322, 145.856 416.017 C 145.362 414.599, 143.671 410.752, 142.099 407.469 L 139.240 401.500 146.757 394.372 L 154.275 387.245 167.887 390.641 C 184.071 394.679, 187.362 394.698, 187.816 390.758 C 188.055 388.682, 187.570 387.770, 185.816 386.997 C 182.502 385.538, 128.081 372, 125.529 372 C 124.358 372, 122.860 372.540, 122.200 373.200 M 134.732 387 C 135.596 389.200, 136.594 391, 136.949 391 C 137.304 391, 139.373 389.087, 141.547 386.750 C 143.721 384.413, 144.903 383.007, 144.173 383.627 C 143.288 384.379, 141.621 384.470, 139.173 383.901 C 133.143 382.500, 133.003 382.598, 134.732 387 M 128.196 409.911 L 124.892 412.735 129.317 413.850 C 131.751 414.463, 134.475 415.245, 135.370 415.589 C 136.793 416.134, 136.753 415.667, 135.056 411.875 C 133.988 409.490, 132.751 407.436, 132.307 407.312 C 131.863 407.188, 130.013 408.358, 128.196 409.911 M 906.372 424.169 C 895.649 431.672, 888.963 437.131, 889.477 437.962 C 890.246 439.206, 882.625 437.270, 875.738 434.472 C 872.305 433.077, 868.771 432.255, 867.685 432.600 C 866.590 432.947, 866.001 432.807, 866.329 432.277 C 866.647 431.762, 863.726 429.866, 859.838 428.064 C 852.781 424.795, 852.763 424.792, 850.779 426.777 C 847.483 430.073, 849.244 432.794, 856.852 436.156 C 860.508 437.771, 864.400 439.526, 865.500 440.056 C 866.600 440.585, 869.910 441.857, 872.855 442.882 L 878.210 444.745 874.270 447.622 C 858.642 459.035, 856 461.331, 856 463.500 C 856 466.451, 858.362 468.337, 861.007 467.498 C 862.163 467.131, 868.685 462.605, 875.500 457.441 L 887.892 448.052 897.696 452.128 C 903.088 454.370, 909.272 457.058, 911.438 458.102 C 916.499 460.542, 918.663 460.499, 920.036 457.933 C 922.050 454.170, 919.056 451.601, 907.161 446.884 L 896.223 442.546 900.115 439.684 C 902.256 438.109, 903.711 436.342, 903.349 435.756 C 902.965 435.135, 903.164 434.983, 903.826 435.393 C 904.450 435.778, 907.445 434.219, 910.481 431.927 C 914.903 428.588, 916 427.194, 916 424.915 C 916 419.735, 913.038 419.506, 906.372 424.169 M 101.205 480.195 C 99.009 482.391, 99.887 485.761, 103.413 488.677 C 105.290 490.230, 108.704 493.863, 110.999 496.752 L 115.173 502.004 110.646 508.348 C 108.156 511.837, 104.967 515.447, 103.559 516.369 C 100.749 518.211, 100.135 522.037, 102.354 523.879 C 104.065 525.299, 164.676 526.207, 167.250 524.851 C 169.356 523.742, 169.554 519.705, 167.583 518.069 C 166.603 517.256, 161.814 516.986, 152.081 517.196 C 143.164 517.389, 137.990 517.133, 137.979 516.500 C 137.969 515.950, 135.495 512.217, 132.481 508.204 C 129.466 504.191, 127 500.659, 127 500.355 C 127 500.050, 128.639 497.146, 130.642 493.901 L 134.284 488 149.577 488 C 166.646 488, 170 487.285, 170 483.647 C 170 482.326, 169.438 480.785, 168.750 480.223 C 166.840 478.662, 102.765 478.635, 101.205 480.195 M 117.022 487.923 C 117.034 488.240, 117.822 489.503, 118.772 490.729 L 120.500 492.959 121.612 490.573 C 122.632 488.384, 122.486 488.152, 119.862 487.766 C 118.288 487.535, 117.010 487.606, 117.022 487.923 M 857.765 511.617 C 856.719 513.912, 856.844 514.456, 858.780 516.023 C 861.170 517.958, 866.141 518.849, 880.154 519.854 L 889.160 520.500 891.018 525.786 C 893.640 533.243, 899.100 545.175, 900.841 547.250 C 903.122 549.968, 905.419 549.339, 908.139 545.250 C 909.511 543.188, 913.946 536.680, 917.995 530.790 C 924.740 520.977, 925.260 519.867, 924.200 517.540 C 923.199 515.342, 922.401 514.997, 918.271 514.980 C 915.647 514.969, 910.575 514.522, 907 513.987 C 896.550 512.423, 866.022 509.869, 865.039 510.476 C 864.543 510.782, 863.856 510.575, 863.510 510.016 C 862.297 508.054, 858.965 508.982, 857.765 511.617 M 117.862 513.771 L 115.224 517.500 120.612 517.157 C 123.575 516.969, 126 516.589, 126 516.312 C 126 515.387, 121.873 510, 121.182 510.021 C 120.807 510.033, 119.313 511.721, 117.862 513.771 M 899.625 523.421 C 899.983 524.564, 901.227 527.636, 902.388 530.247 L 904.500 534.995 908.315 529.491 C 910.937 525.708, 911.718 523.872, 910.815 523.618 C 910.092 523.416, 907.132 522.821, 904.237 522.296 C 899.169 521.377, 898.998 521.418, 899.625 523.421 M 157.701 574.632 C 157.353 574.980, 155.418 578.783, 153.399 583.084 L 149.730 590.903 142.496 586.933 C 138.337 584.651, 134.586 583.222, 133.674 583.572 C 132.075 584.185, 123.519 597.917, 118.534 607.871 C 115.676 613.577, 115.717 617.294, 118.650 618.419 C 119.570 618.772, 130.661 615.860, 143.408 611.919 C 178.243 601.149, 183.368 599.323, 184.797 597.175 C 187.980 592.391, 183.100 586.782, 168.749 578.726 C 160.306 573.988, 158.876 573.457, 157.701 574.632 M 847.667 581.667 C 846.548 582.785, 846.923 586.695, 848.250 587.744 C 849.540 588.764, 863.014 593.291, 875.750 596.983 C 879.737 598.139, 883 599.247, 883 599.446 C 883 599.645, 879.288 602.172, 874.750 605.062 C 870.212 607.951, 864.820 611.626, 862.767 613.228 L 859.034 616.141 849.095 612.884 C 840.757 610.151, 838.902 609.837, 837.578 610.935 C 835.327 612.804, 835.629 615.713, 838.250 617.411 C 840.162 618.650, 869.895 628.805, 891.991 635.768 C 899.250 638.055, 902 637.456, 902 633.587 C 902 630.402, 900.891 629.726, 890.500 626.578 C 878.205 622.853, 869.990 619.855, 870.052 619.116 C 870.080 618.777, 875.532 614.950, 882.167 610.610 L 894.230 602.720 901.725 605.070 C 909.055 607.369, 909.249 607.379, 910.610 605.519 C 913.948 600.953, 911.625 599.217, 896 594.604 C 889.125 592.575, 876.643 588.683, 868.262 585.957 C 853.576 581.179, 849.089 580.245, 847.667 581.667 M 158.779 591.997 C 156.742 595.849, 155.491 599, 156 599 C 156.509 599, 159.304 598.126, 162.212 597.059 C 165.121 595.991, 169.188 594.816, 171.250 594.447 C 173.313 594.079, 174.987 593.490, 174.972 593.139 C 174.950 592.640, 165.608 586.473, 163.018 585.247 C 162.724 585.108, 160.817 588.146, 158.779 591.997 M 132.502 600.995 L 128.980 607.990 135.740 605.379 C 139.458 603.943, 143.799 602.474, 145.387 602.116 L 148.273 601.464 142.652 597.732 C 139.560 595.679, 136.805 594, 136.528 594 C 136.251 594, 134.440 597.148, 132.502 600.995 M 501.750 628.789 C 495.074 629.009, 493 629.408, 493 630.472 C 493 631.238, 493.912 632.155, 495.027 632.508 C 499.214 633.837, 500.085 636.942, 499.783 649.458 L 499.500 661.166 484.963 645.333 L 470.426 629.500 463.713 629.204 C 458.433 628.972, 457 629.213, 457 630.333 C 457 631.116, 458.391 632.334, 460.091 633.038 C 461.791 633.742, 463.541 635.259, 463.979 636.409 C 464.417 637.559, 464.845 645.188, 464.930 653.362 C 465.095 669.318, 464.166 673, 459.977 673 C 458.886 673, 458 673.672, 458 674.500 C 458 675.728, 459.722 676, 467.500 676 C 474.949 676, 477 675.700, 477 674.608 C 477 673.843, 475.892 672.939, 474.537 672.599 C 471.031 671.719, 469.819 666.571, 470.190 654.137 L 470.500 643.775 484.488 659.428 C 492.181 668.038, 499.418 675.699, 500.570 676.454 C 504.742 679.187, 505.178 677.440, 505.076 658.388 C 504.967 638.148, 505.488 635.055, 509.315 633.195 C 510.792 632.478, 511.993 631.578, 511.985 631.195 C 511.937 629.045, 509.728 628.525, 501.750 628.789 M 596.489 629.326 C 584.880 633.853, 579.185 642.898, 580.278 655.072 C 581.525 668.966, 590.744 677.163, 605.073 677.117 C 620.155 677.070, 631.035 666.278, 630.902 651.500 C 630.872 648.200, 630.305 644, 629.640 642.166 C 627.906 637.376, 621.489 631.355, 616.197 629.552 C 610.906 627.749, 600.830 627.633, 596.489 629.326 M 352 630.281 C 352 630.985, 353.350 632.071, 355 632.694 C 357.925 633.798, 358.001 633.997, 358.033 640.663 C 358.051 644.423, 358.326 651.882, 358.644 657.238 C 359.346 669.059, 358.790 671.764, 355.485 672.593 C 354.118 672.936, 353 673.843, 353 674.608 C 353 675.709, 355.197 676, 363.500 676 C 369.275 676, 374 675.679, 374 675.288 C 374 674.896, 372.780 673.603, 371.290 672.414 C 368.891 670.501, 368.533 669.434, 368.177 663.127 L 367.774 656 370.810 656 C 373.505 656, 374.329 656.802, 378.173 663.168 C 383.773 672.444, 388.325 676.133, 394.961 676.770 C 401.144 677.364, 401.735 675.561, 396.631 671.668 C 394.779 670.255, 390.978 665.499, 388.185 661.100 C 383.748 654.113, 383.332 653.029, 384.895 652.533 C 391.155 650.547, 394.134 639.954, 389.930 634.629 C 386.165 629.858, 382.597 629, 366.532 629 C 355.387 629, 352 629.299, 352 630.281 M 402 630.392 C 402 631.157, 403.075 632.053, 404.390 632.383 C 407.261 633.104, 407.581 634.989, 407.892 653 C 408.149 667.913, 409.415 671.482, 415.500 674.453 C 424.744 678.967, 437.017 677.162, 442.939 670.417 C 446.761 666.064, 446.912 665.319, 447.246 649.147 C 447.519 635.933, 447.551 635.770, 450.261 633.609 C 454.948 629.872, 453.858 629, 444.500 629 C 437.611 629, 436 629.284, 436 630.500 C 436 631.325, 436.605 632, 437.345 632 C 438.085 632, 439.435 632.823, 440.345 633.829 C 442.657 636.384, 442.765 660.621, 440.483 665.033 C 438.293 669.269, 433.717 671.323, 427.751 670.750 C 419.279 669.936, 418.622 668.600, 417.907 650.730 C 417.573 642.354, 417.506 634.934, 417.760 634.241 C 418.013 633.549, 419.296 632.713, 420.610 632.383 C 421.925 632.053, 423 631.157, 423 630.392 C 423 629.291, 420.803 629, 412.500 629 C 404.197 629, 402 629.291, 402 630.392 M 516 630.525 C 516 631.363, 517.112 632.472, 518.472 632.989 C 519.832 633.506, 521.198 634.958, 521.508 636.215 C 521.818 637.472, 521.943 645.694, 521.786 654.488 L 521.500 670.475 518.750 671.792 C 517.237 672.517, 516 673.760, 516 674.555 C 516 675.768, 519.272 676, 536.369 676 L 556.738 676 557.358 672.250 C 558.495 665.373, 558.174 663, 556.108 663 C 554.919 663, 553.981 663.939, 553.582 665.531 C 552.610 669.401, 547.491 671.992, 540.807 671.996 C 533.391 672.001, 532 670.229, 532 660.777 L 532 654 537.759 654 C 542.436 654, 543.754 654.376, 544.768 656 C 545.455 657.100, 546.688 658, 547.508 658 C 548.665 658, 549 656.652, 549 652 C 549 648.700, 549.034 645.674, 549.075 645.275 C 549.295 643.147, 546.899 644.295, 545.508 646.985 C 543.958 649.981, 543.687 650.086, 538.199 649.798 L 532.500 649.500 532.208 641.750 L 531.916 634 536.208 633.885 C 538.569 633.822, 541.400 633.863, 542.500 633.978 C 544.947 634.232, 548 636.828, 548 638.655 C 548 639.395, 548.900 640, 550 640 C 551.758 640, 552 639.333, 552 634.500 L 552 629 545.441 629 C 540.484 629, 539.054 629.305, 539.588 630.250 C 540.152 631.250, 540.024 631.250, 538.947 630.250 C 538.042 629.410, 534.055 629, 526.800 629 C 517.789 629, 516 629.253, 516 630.525 M 634 630.315 C 634 631.038, 635.575 632.381, 637.500 633.299 L 641 634.968 640.986 651.234 C 640.979 660.180, 640.700 668.517, 640.367 669.761 C 640.029 671.021, 638.707 672.286, 637.381 672.619 C 636.071 672.948, 635.001 673.956, 635.003 674.858 C 635.006 676.271, 636.537 676.521, 646.003 676.653 C 656.201 676.795, 657 676.668, 657 674.903 C 657 673.678, 656.300 673, 655.035 673 C 652.077 673, 651 669.936, 651 661.516 L 651 653.900 656.750 654.200 C 661.601 654.453, 662.654 654.852, 663.487 656.750 C 664.030 657.987, 665.268 659, 666.237 659 C 667.752 659, 668 658.022, 668 652.059 C 668 644.661, 666.857 642.508, 664.900 646.222 C 663.231 649.391, 662.089 649.969, 657.500 649.969 C 651.323 649.969, 650.866 649.312, 651.203 640.912 L 651.500 633.500 657.500 633.772 C 662.745 634.010, 663.824 634.419, 666.073 637.022 C 669.883 641.432, 671 640.860, 671 634.500 L 671 629 652.500 629 C 637.880 629, 634 629.276, 634 630.315 M 601.500 632.716 C 598.849 633.357, 595.190 636.791, 593.204 640.500 C 590.645 645.281, 590.994 657.358, 593.861 663.243 C 599.749 675.328, 612.283 676.031, 617.617 664.576 C 623.143 652.708, 618.641 636.825, 608.685 633.064 C 605.752 631.956, 604.828 631.911, 601.500 632.716 M 368 642 L 368 651 372.500 651 C 378.573 651, 381 648.561, 381 642.455 C 381 636.363, 377.815 633, 372.045 633 L 368 633 368 642 M 171 661.843 C 148.151 673.237, 143.445 675.941, 143.173 677.833 C 142.808 680.381, 144.541 683, 146.593 683 C 147.335 683, 156.505 678.743, 166.971 673.540 C 177.437 668.338, 186 664.331, 186 664.636 C 186 664.941, 185.179 666.386, 184.175 667.846 C 179.686 674.372, 172.574 687.900, 166.958 700.596 C 161.834 712.177, 161.024 714.758, 161.906 716.694 C 163.105 719.324, 166.479 719.742, 169.527 717.639 C 170.612 716.890, 174.875 714.458, 179 712.234 C 212.504 694.167, 218.731 690.676, 220.407 689.017 C 222.213 687.231, 222.225 686.992, 220.634 684.565 C 219.710 683.154, 218.471 682, 217.881 682 C 217.291 682, 213.139 683.977, 208.654 686.394 C 192.796 694.940, 176.698 703.031, 176.315 702.649 C 175.615 701.948, 184.372 684.783, 193.268 669.420 C 198.071 661.126, 202 653.453, 202 652.370 C 202 650.501, 200.235 647.925, 199.050 648.065 C 198.748 648.100, 186.125 654.300, 171 661.843 M 809.797 675.546 C 808.785 677.767, 808.948 678.390, 811.069 680.432 C 814.507 683.742, 833.077 696, 834.652 696 C 835.372 696, 836.200 697.013, 836.491 698.250 C 836.781 699.487, 838.145 705.675, 839.522 712 C 840.899 718.325, 842.260 724.540, 842.547 725.811 C 842.980 727.728, 843.617 728.069, 846.284 727.811 C 849.411 727.509, 849.502 727.364, 849.589 722.607 C 849.637 719.916, 848.865 714.291, 847.873 710.107 C 845.488 700.055, 845.420 700.243, 849.968 704.352 C 852.151 706.324, 856.462 709.614, 859.548 711.663 C 865.744 715.777, 868.232 715.525, 868.809 710.726 C 869.068 708.573, 868.172 707.511, 863.309 704.199 C 860.114 702.023, 856.662 699.310, 855.638 698.169 C 853.802 696.124, 853.816 696.085, 856.638 695.447 C 874.526 691.400, 875 691.210, 875 688.084 C 875 683.911, 872.977 682.660, 868.277 683.925 C 866.145 684.499, 859.049 686.079, 852.509 687.436 L 840.616 689.902 832.544 685.027 C 828.105 682.345, 822.454 678.546, 819.986 676.585 C 814.603 672.306, 811.421 671.982, 809.797 675.546 M 328.569 694.764 C 327.476 695.857, 328.011 698, 329.378 698 C 332.832 698, 333.436 700.887, 333.195 716.241 C 333.065 724.500, 332.717 731.649, 332.420 732.129 C 332.124 732.608, 331.009 733, 329.941 733 C 328.873 733, 328 733.675, 328 734.500 C 328 735.680, 329.494 736.024, 335 736.111 C 348.120 736.319, 348 736.330, 348 734.975 C 348 734.412, 346.899 733.532, 345.554 733.020 C 343.022 732.058, 342.406 730.149, 341.757 721.250 L 341.447 717 347.205 717 C 352.512 717, 353.011 717.195, 353.589 719.500 C 354.718 723.997, 356.999 722.499, 357.014 717.250 C 357.021 714.638, 357.299 711.487, 357.630 710.250 C 358.084 708.559, 357.809 708, 356.523 708 C 355.582 708, 354.576 708.905, 354.287 710.011 C 353.998 711.117, 352.759 712.273, 351.535 712.581 C 348.604 713.316, 341.431 712.708, 341.750 711.750 C 341.887 711.337, 342 708.108, 342 704.572 L 342 698.145 347.750 698.708 C 354.355 699.356, 357 700.451, 357 702.535 C 357 703.341, 357.675 704, 358.500 704 C 359.611 704, 360 702.833, 360 699.500 L 360 695 350.750 694.895 C 345.663 694.838, 338.718 694.657, 335.319 694.493 C 331.919 694.329, 328.882 694.452, 328.569 694.764 M 380.500 695.147 C 371.785 698.367, 367.059 705.450, 367.022 715.349 C 366.995 722.422, 368.895 726.769, 374.046 731.423 C 378.624 735.559, 384.582 737.365, 391.698 736.775 C 411.685 735.118, 419.368 708.967, 403.211 697.587 C 399.651 695.080, 397.989 694.629, 391.287 694.356 C 387.004 694.181, 382.150 694.537, 380.500 695.147 M 417.250 694.596 C 415.559 695.368, 415.658 698, 417.378 698 C 420.219 698, 420.916 700.775, 421.035 712.551 C 421.230 731.844, 421.235 731.790, 419 732.500 C 417.900 732.849, 417 733.779, 417 734.567 C 417 735.705, 418.855 736, 426 736 C 433.333 736, 435 735.722, 435 734.500 C 435 733.675, 434.341 733, 433.535 733 C 431.256 733, 430 729.647, 430 723.566 C 430 718.281, 430.128 718, 432.525 718 C 434.473 718, 435.671 719.064, 437.775 722.659 C 443.664 732.728, 448.930 737, 455.450 737 C 459.951 737, 460.022 735.316, 455.670 731.843 C 453.839 730.382, 450.521 726.286, 448.299 722.740 L 444.257 716.295 447.490 713.715 C 453.728 708.738, 452.544 699.396, 445.286 696.327 C 441.483 694.719, 419.898 693.386, 417.250 694.596 M 460.523 697.250 C 460.235 698.763, 459.739 701.350, 459.421 703 C 458.643 707.027, 461.379 707.101, 463.444 703.108 C 464.894 700.305, 469.273 698, 473.149 698 C 474.871 698, 475 699.085, 475 713.566 C 475 728.954, 474.286 733, 471.572 733 C 470.825 733, 469.955 733.675, 469.638 734.500 C 469.150 735.772, 470.581 736, 479.031 736 C 487.226 736, 489 735.733, 489 734.500 C 489 733.675, 488.148 733, 487.107 733 C 486.066 733, 484.941 732.288, 484.607 731.418 C 484.273 730.548, 484 722.623, 484 713.807 L 484 697.777 487.750 698.473 C 491.861 699.236, 494.625 701.243, 495.542 704.132 C 495.868 705.159, 496.822 706, 497.661 706 C 498.926 706, 499.066 705.099, 498.481 700.750 C 498.092 697.862, 497.704 695.417, 497.619 695.316 C 497.534 695.214, 489.271 694.989, 479.256 694.816 L 461.046 694.500 460.523 697.250 M 540.807 694.781 C 527.956 695.090, 528.794 694.622, 527.442 702.250 C 526.593 707.039, 527.957 707.100, 532.237 702.465 C 534.444 700.074, 536.714 698.738, 539.250 698.334 L 543 697.738 543 712.804 C 543 729.086, 542.230 733, 539.025 733 C 537.892 733, 537 733.661, 537 734.500 C 537 735.733, 538.778 736, 547 736 C 554.388 736, 557 735.670, 557 734.737 C 557 734.043, 555.987 733.030, 554.750 732.487 C 552.561 731.527, 552.493 731.041, 552.225 714.634 L 551.951 697.768 555.725 698.469 C 559.859 699.236, 562.624 701.239, 563.542 704.132 C 563.868 705.159, 564.779 706, 565.567 706 C 567.047 706, 567.540 700.611, 566.435 696.500 C 565.841 694.289, 564.640 694.208, 540.807 694.781 M 579.250 694.790 C 573.156 695.005, 571 695.432, 571 696.424 C 571 697.162, 571.832 697.984, 572.848 698.250 C 575.305 698.892, 576 702.847, 576 716.175 C 576 732.558, 579.029 736.399, 592 736.466 C 599.571 736.506, 604.186 734.331, 607.747 729.048 C 609.771 726.044, 610 724.495, 610 713.786 C 610 701.912, 610.849 698, 613.428 698 C 614.175 698, 615.045 697.325, 615.362 696.500 C 615.844 695.244, 614.641 695, 607.969 695 C 601.724 695, 600 695.310, 600 696.430 C 600 697.217, 600.994 698.005, 602.209 698.180 C 605.025 698.588, 605.780 701.330, 605.876 711.500 C 606.015 726.142, 603.843 730.512, 595.881 731.603 C 591.741 732.170, 590.958 731.935, 587.897 729.199 L 584.503 726.167 584.150 714.208 C 583.788 701.971, 584.618 698, 587.535 698 C 589.027 698, 589.616 695.372, 588.250 694.809 C 587.837 694.639, 583.788 694.631, 579.250 694.790 M 504 696.430 C 504 697.217, 505.006 698.005, 506.237 698.180 C 509.031 698.580, 509.712 702.151, 509.931 717.554 C 510.108 730.028, 509.704 731.782, 506.364 733.052 C 501.441 734.923, 504.048 736, 513.500 736 C 521.278 736, 523 735.728, 523 734.500 C 523 733.675, 522.314 733, 521.475 733 C 518.755 733, 517.942 728.031, 518.224 713.117 C 518.494 698.816, 518.549 698.493, 520.750 698.180 C 521.987 698.005, 523 697.217, 523 696.430 C 523 695.290, 521.072 695, 513.500 695 C 505.928 695, 504 695.290, 504 696.430 M 618 696.185 C 618 696.942, 619.362 698.075, 621.026 698.704 L 624.052 699.846 623.776 715.673 C 623.509 731.001, 623.429 731.531, 621.250 732.487 C 620.013 733.030, 619 734.078, 619 734.817 C 619 735.887, 621.591 736.092, 631.784 735.829 C 643.163 735.536, 645.112 735.219, 649.525 732.945 C 656.574 729.313, 660.173 723.277, 660.134 715.153 C 660.092 706.419, 657.112 701.664, 649 697.389 C 644.370 694.950, 618 693.925, 618 696.185 M 663 695.885 C 663 696.372, 664.136 697.515, 665.525 698.425 L 668.050 700.079 667.775 715.790 C 667.509 730.997, 667.428 731.532, 665.250 732.487 C 664.013 733.030, 663 734.043, 663 734.737 C 663 735.706, 667.046 736, 680.369 736 L 697.738 736 698.358 732.250 C 699.722 724, 698.111 722.538, 694.241 728.512 C 691.917 732.100, 690.430 732.543, 682.500 732.011 C 677.829 731.697, 677 730.396, 677 723.378 L 677 717 682.021 717 C 686.407 717, 687.187 717.316, 688.182 719.500 C 688.808 720.875, 689.924 722, 690.661 722 C 692.613 722, 692.548 709.424, 690.592 708.674 C 689.692 708.328, 688.963 709.011, 688.573 710.567 C 688.019 712.774, 687.453 713, 682.481 713 L 677 713 677 706 L 677 699 682.547 699 C 687.661 699, 688.226 699.233, 689.797 701.994 C 692.403 706.574, 694 705.817, 694 700 L 694 695 678.500 695 C 669.975 695, 663 695.398, 663 695.885 M 382.743 699.084 C 377.131 702.352, 375.091 715.896, 378.910 724.529 C 383.643 735.229, 396.296 735.716, 400.621 725.364 C 402.243 721.483, 402.411 713.021, 400.970 707.832 C 399.452 702.365, 393.984 697.992, 388.715 698.030 C 386.397 698.047, 383.709 698.521, 382.743 699.084 M 430 705.868 L 430 714 433.066 714 C 436.288 714, 439.995 712.457, 441.235 710.600 C 441.639 709.995, 441.976 707.882, 441.985 705.905 C 442.004 701.400, 439.529 699.015, 434.078 698.284 L 430 697.737 430 705.868 M 633.667 698.667 C 632.417 699.917, 632.908 729.508, 634.200 730.800 C 636.339 732.939, 642.579 732.226, 645.857 729.467 C 649.665 726.263, 651.350 721.200, 650.793 714.638 C 650.141 706.961, 647.432 702.101, 642.576 699.895 C 638.375 697.987, 634.834 697.499, 633.667 698.667 M 236.534 744.203 C 228.852 744.704, 222.026 745.564, 221.364 746.113 C 219.845 747.374, 220.713 784.806, 222.309 786.815 C 223.139 787.861, 226.952 787.989, 240.927 787.438 C 251.151 787.034, 259.077 786.284, 259.879 785.643 C 261.757 784.143, 260.990 746.898, 259.032 744.539 C 257.628 742.846, 257.390 742.843, 236.534 744.203 M 757.655 747.829 C 756.745 748.835, 756 750.480, 756 751.486 C 756 752.501, 763.227 760.692, 772.254 769.907 C 781.194 779.033, 789.980 788.188, 791.778 790.250 C 795.299 794.288, 797.055 794.844, 798.974 792.531 C 800.448 790.755, 799.370 761.259, 797.758 759.250 C 797.206 758.563, 795.740 758, 794.500 758 C 790.646 758, 789.774 760.217, 790.290 768.708 L 790.762 776.490 775.915 761.245 C 767.749 752.860, 760.673 746, 760.189 746 C 759.706 746, 758.565 746.823, 757.655 747.829 M 240.250 753.373 L 230 754.273 230 766.136 L 230 778 241.113 778 L 252.226 778 251.556 765.276 C 251.187 758.278, 250.799 752.535, 250.693 752.513 C 250.587 752.491, 245.887 752.878, 240.250 753.373 M 306.755 791.192 C 293.563 811.615, 279 835.786, 279 837.259 C 279 837.588, 279.707 838.564, 280.571 839.429 C 283.747 842.604, 285.679 841.309, 291.061 832.399 L 296.256 823.798 300.045 832.983 C 302.129 838.034, 304.107 842.440, 304.441 842.774 C 304.774 843.108, 309.522 843.293, 314.991 843.185 L 324.936 842.990 319.407 852.064 C 316.253 857.242, 314.012 862.031, 314.190 863.217 C 314.558 865.682, 317.151 867.540, 319.150 866.773 C 320.339 866.316, 342.986 830.512, 351.093 816.272 C 353.770 811.570, 353.104 808.769, 349.169 808.183 C 347.510 807.936, 346.214 809.186, 343.271 813.873 C 341.197 817.177, 337.535 823.012, 335.134 826.840 L 330.768 833.801 320.829 834.512 C 315.363 834.903, 310.649 834.983, 310.355 834.688 C 310.060 834.393, 308.055 829.753, 305.900 824.376 L 301.982 814.600 309.056 802.769 C 316.697 789.990, 317.443 786.725, 312.842 786.192 C 310.593 785.932, 309.655 786.703, 306.755 791.192 M 683.631 803.855 C 681.581 806.121, 682.056 807.532, 687.551 815.483 C 689.838 818.792, 692.880 823.531, 694.311 826.014 L 696.914 830.528 694.486 843.514 C 691.733 858.242, 691.489 862.089, 693.200 863.800 C 694.755 865.355, 696.185 865.316, 698.455 863.657 C 699.769 862.696, 700.766 859.510, 701.958 852.458 L 703.625 842.602 708.799 851.167 C 714.884 861.242, 716.112 862.440, 719.487 861.593 C 723.251 860.648, 722.684 857.964, 716.500 847.456 C 713.475 842.317, 711 837.914, 711 837.672 C 711 837.430, 714.689 838.305, 719.199 839.616 C 729.225 842.531, 731.613 842.591, 733.020 839.962 C 734.815 836.609, 733.298 834.153, 728.690 832.954 C 726.385 832.355, 720.094 830.658, 714.708 829.185 L 704.917 826.505 696.997 814.253 C 688.733 801.468, 687.007 800.125, 683.631 803.855 M 391.275 829.202 C 390.075 830.686, 384.933 848.853, 378.826 873.180 C 375.264 887.373, 374.840 890.102, 375.984 891.481 C 378.198 894.149, 382.302 893.017, 383.166 889.500 C 384.080 885.781, 394.914 844.840, 395.314 843.592 C 395.474 843.093, 397.832 846.693, 400.553 851.592 C 406.670 862.606, 407.687 862.905, 417.343 856.523 C 425.008 851.457, 425.448 851.278, 424.156 853.750 C 423.653 854.712, 421.344 863.600, 419.025 873.500 C 416.706 883.400, 414.197 893.431, 413.451 895.790 C 411.918 900.636, 412.337 902.655, 415.055 903.517 C 419.585 904.955, 420.288 903.278, 427.837 873.037 C 431.835 857.018, 434.841 843.073, 434.515 842.048 C 434.190 841.023, 433.340 839.961, 432.626 839.687 C 431.912 839.413, 426.681 841.846, 421.002 845.094 C 415.322 848.342, 410.400 851, 410.064 851 C 409.728 851, 406.537 845.938, 402.973 839.750 C 396.457 828.436, 393.818 826.057, 391.275 829.202 M 608.250 834.641 C 606.259 835.478, 606.679 837.943, 612.500 859.634 C 615.525 870.905, 618 880.329, 618 880.577 C 618 881.182, 610.031 876.073, 607.436 873.805 C 605.057 871.726, 601.935 871.465, 600.200 873.200 C 597.675 875.725, 599.109 878.001, 606.750 883.594 C 611.013 886.715, 617.089 891.490, 620.254 894.206 C 623.419 896.923, 626.746 899, 627.647 898.822 C 630.833 898.195, 631.446 895.561, 629.731 889.864 C 628.842 886.914, 625.028 873.250, 621.254 859.500 C 614.743 835.776, 614.268 834.490, 611.946 834.307 C 610.601 834.201, 608.938 834.351, 608.250 834.641 M 498.200 848.200 C 496.483 849.917, 496.483 913.083, 498.200 914.800 C 499.891 916.491, 502.515 916.290, 504.128 914.345 C 505.231 913.014, 505.438 907.677, 505.181 887.095 L 504.862 861.500 515.360 871.911 L 525.858 882.323 528.429 880.638 C 529.843 879.712, 531 878.194, 531 877.265 C 531 875.171, 502.994 847, 500.912 847 C 500.080 847, 498.860 847.540, 498.200 848.200" stroke="none" fill="#ca9e4e" fill-rule="evenodd"/><path d="M 0 512.001 L 0 1024.002 512.250 1023.751 L 1024.500 1023.500 1024.751 511.750 L 1025.002 0 512.501 0 L 0 0 0 512.001 M 0.496 512.500 C 0.496 794.100, 0.610 909.151, 0.750 768.168 C 0.890 627.186, 0.890 396.786, 0.750 256.168 C 0.610 115.551, 0.496 230.900, 0.496 512.500 M 485.500 55.742 C 473.351 56.162, 449.121 58.984, 431.500 62.032 C 375.085 71.789, 315.958 95.152, 267.500 126.833 C 226.314 153.759, 180.819 196.940, 151.427 237 C 128.446 268.322, 109.674 301.646, 96.784 334 C 80.163 375.721, 70.286 417.435, 64.465 470.500 C 63.176 482.247, 63.806 531.028, 65.470 548.276 C 70.996 605.572, 89.055 663.774, 117.731 716.708 C 121.454 723.580, 124.950 729.954, 125.500 730.872 C 126.050 731.790, 127.811 734.782, 129.414 737.520 C 139.144 754.147, 154.791 776.261, 169.376 794 C 180.982 808.116, 218.343 844.745, 232.981 856.359 C 259.658 877.526, 283.407 892.671, 313 907.388 C 356.114 928.830, 397.201 941.935, 446.563 949.989 C 473.460 954.378, 522.225 956.022, 549.500 953.460 C 643.818 944.598, 727.320 909.679, 800.469 848.509 C 822.060 830.454, 849.962 801.173, 868.134 777.500 C 887.091 752.804, 911.202 711.398, 924.035 681.500 C 935.504 654.779, 948.303 611.839, 953.420 582.914 C 956.374 566.214, 956.495 564.631, 954.750 565.515 C 954.063 565.863, 954.230 565.545, 955.123 564.807 C 960.581 560.295, 961.897 495.474, 957.443 450.500 C 955.982 435.744, 948.249 394.469, 946.016 389.500 C 945.521 388.400, 944.809 385.925, 944.433 384 C 942.434 373.757, 931.244 342.239, 923.415 324.799 C 910.962 297.061, 897.637 273.110, 881.313 249.123 C 869.826 232.244, 853.774 212.031, 852.250 212.529 C 851.554 212.756, 851 212.119, 851 211.089 C 851 208.743, 823.401 180.158, 807.924 166.474 C 782.662 144.138, 756.228 125.448, 729.260 110.856 C 716.921 104.180, 694.992 93.359, 689.081 91.030 C 686.100 89.856, 681.737 88.019, 679.385 86.948 C 674.426 84.689, 672.351 84.414, 676 86.500 C 677.602 87.416, 677.940 87.942, 676.941 87.965 C 675.223 88.004, 670.894 85.107, 672.500 84.993 C 675.176 84.803, 648.414 75.621, 635 72.126 C 632.525 71.481, 626.450 69.861, 621.500 68.526 C 582.871 58.109, 538.289 53.918, 485.500 55.742 M 481.500 67.606 C 380.218 75.008, 289.026 114.226, 215 182.220 C 208.675 188.029, 200.575 196.082, 197 200.115 C 193.425 204.148, 187.642 210.582, 184.150 214.412 C 172 227.736, 155.156 249.968, 144.307 267 C 142.380 270.025, 140.007 273.639, 139.033 275.031 C 135.448 280.158, 119.954 309.156, 114.921 320.157 C 98.141 356.835, 85.421 400.148, 79.579 440.500 C 75.353 469.693, 74.759 479.683, 75.304 512.500 C 75.806 542.739, 76.294 549.086, 79.955 573 C 81.265 581.557, 85.259 600.223, 88.545 613.144 C 101.043 662.293, 125.775 715.269, 156.248 758.164 C 196.064 814.209, 252.650 863.864, 310.286 893.334 C 317.257 896.898, 319.702 898.604, 318.786 899.263 C 317.889 899.909, 318.071 900.003, 319.386 899.573 C 320.555 899.192, 324.549 900.530, 329.886 903.089 C 357.555 916.357, 401.184 930.423, 432 936.009 C 480.943 944.880, 521.076 946.066, 566.500 939.981 C 663.083 927.044, 750.802 883.971, 818.992 816 C 854.781 780.326, 881.881 742.673, 903.401 698.725 C 915.247 674.534, 921.375 659.271, 928.389 636.491 C 943.548 587.261, 948.992 551.839, 948.998 502.411 C 949.005 433.251, 933.296 366.740, 902.962 307.500 C 874.226 251.380, 839.425 208.243, 787.500 164.381 C 777.657 156.066, 750.127 136.800, 735.844 128.230 C 685.370 97.946, 625.900 77.557, 567 70.343 C 559.025 69.366, 552.275 68.327, 552 68.033 C 551.431 67.426, 489.131 67.049, 481.500 67.606 M 476.021 92.475 C 474.952 93.763, 474.823 98.747, 475.369 117.790 C 475.743 130.830, 476.237 143.525, 476.467 146 C 476.698 148.475, 476.888 152.675, 476.890 155.333 C 476.894 160.841, 478.217 163, 481.587 163 C 485.480 163, 485.898 160.588, 485.060 142.963 C 484.630 133.908, 484.328 126.428, 484.389 126.340 C 484.450 126.252, 489.359 128.619, 495.298 131.599 C 504.215 136.075, 506.447 136.831, 508.108 135.942 C 509.491 135.202, 510.023 134.057, 509.810 132.278 C 509.501 129.701, 506.279 127.559, 488.889 118.372 C 484.331 115.964, 484.271 115.865, 483.637 109.803 C 483.285 106.430, 483.155 103.512, 483.349 103.318 C 483.542 103.124, 486.158 104.436, 489.162 106.233 C 492.165 108.030, 497.432 110.832, 500.866 112.460 C 507.770 115.733, 510.500 115.289, 510.500 110.891 C 510.500 108.961, 509.055 107.679, 503 104.242 C 498.875 101.900, 494.943 100.196, 494.262 100.456 C 493.581 100.715, 493.131 100.522, 493.262 100.025 C 493.537 98.983, 482.755 92.228, 479.522 91.416 C 478.197 91.084, 476.833 91.496, 476.021 92.475 M 576.009 95.489 C 575.309 96.332, 573.463 104.298, 571.906 113.190 C 570.350 122.083, 568.849 129.952, 568.570 130.679 C 568.291 131.406, 568.611 132.007, 569.281 132.015 C 570.158 132.026, 570.183 132.237, 569.372 132.765 C 568.751 133.169, 567.233 139.911, 565.997 147.748 C 563.573 163.126, 563.845 165, 568.500 165 C 571.933 165, 573.087 162.805, 574.131 154.292 C 575.570 142.559, 575.843 141.625, 577.442 142.952 C 578.601 143.914, 588.378 159.538, 591.491 165.402 C 593.096 168.427, 595.706 169.674, 597.750 168.393 C 601.426 166.088, 601.043 164.879, 590.723 146.206 L 586.139 137.911 593.320 132.652 C 597.269 129.760, 601.962 126.374, 603.750 125.128 C 605.538 123.883, 607 122.014, 607 120.974 C 607 119.911, 603.394 115.644, 598.750 111.211 C 580.996 94.267, 578.471 92.522, 576.009 95.489 M 580.956 109.626 C 580.932 111.757, 580.485 115.525, 579.962 118 C 579.439 120.475, 578.733 124.960, 578.393 127.966 C 577.880 132.501, 578.007 133.245, 579.138 132.334 C 579.887 131.730, 583.650 128.875, 587.500 125.989 C 591.350 123.103, 594.619 120.444, 594.764 120.079 C 594.909 119.714, 591.872 116.341, 588.014 112.584 L 581 105.753 580.956 109.626 M 378.009 112.489 C 376.547 114.250, 376.751 115.526, 382.091 138 C 387.666 161.462, 388.983 166.190, 390.694 168.873 C 391.526 170.178, 391.693 170.928, 391.064 170.539 C 389.584 169.625, 390.671 174.592, 392.642 177.750 C 394.266 180.352, 395.834 180.573, 398.554 178.584 C 400.438 177.206, 400.445 176.956, 398.800 169.334 C 397.871 165.025, 396.267 158.094, 395.236 153.931 L 393.361 146.361 405.875 151.303 C 419.290 156.601, 421.219 156.644, 421.815 151.664 C 422.175 148.651, 422.127 148.623, 404.500 141.869 C 398.450 139.551, 392.790 137.058, 391.922 136.328 C 390.609 135.224, 388 127.021, 388 123.997 C 388 123.530, 393.482 125.364, 400.182 128.074 C 406.882 130.783, 412.902 133, 413.560 133 C 415.578 133, 417.255 130.149, 416.640 127.763 C 416.167 125.930, 413.248 124.376, 401.278 119.583 C 393.150 116.329, 385.790 113.066, 384.921 112.333 C 382.829 110.566, 379.543 110.641, 378.009 112.489 M 670.400 121.765 C 667.874 123.452, 667.297 127.354, 667.194 143.414 C 667.135 152.717, 666.700 160.592, 666.227 160.914 C 651.542 170.920, 640 180.389, 640 182.430 C 640 183.123, 640.902 184.506, 642.004 185.504 C 644.619 187.871, 645.917 187.256, 658.658 177.613 C 664.190 173.426, 668.944 170, 669.223 170 C 669.502 170, 670.057 176.188, 670.456 183.750 C 670.855 191.313, 671.645 198.063, 672.213 198.750 C 672.781 199.438, 674.288 200, 675.563 200 C 676.839 200, 678.246 199.438, 678.691 198.750 C 679.136 198.063, 679.500 189.426, 679.500 179.557 L 679.500 161.615 685.500 157.280 C 688.800 154.895, 694.789 150.676, 698.808 147.903 C 702.828 145.130, 706.365 142.213, 706.668 141.423 C 707.338 139.676, 704.446 135, 702.695 135 C 701.452 135, 683.433 147.491, 679.436 151.124 C 678.300 152.156, 677.065 153, 676.690 153 C 676.316 153, 676.101 146.521, 676.212 138.602 C 676.364 127.848, 676.079 123.800, 675.085 122.602 C 673.649 120.872, 672.141 120.603, 670.400 121.765 M 289.243 154.157 C 287.340 156.060, 287.722 158.194, 291.116 164.609 C 295.246 172.417, 318.955 212.019, 320.835 214.250 C 322.769 216.545, 324.540 216.460, 327.045 213.955 L 329.090 211.910 324.936 204.383 L 320.781 196.857 324.985 184.809 C 328.632 174.357, 328.999 172.571, 327.758 171.329 C 326.965 170.536, 321.081 169.056, 314.557 168.009 C 308.083 166.970, 302.506 165.840, 302.164 165.497 C 301.822 165.155, 300.182 162.315, 298.521 159.187 C 295.373 153.260, 291.979 151.421, 289.243 154.157 M 307.240 175.926 C 307.398 176.242, 309.070 178.892, 310.954 181.815 L 314.380 187.131 316.225 182.434 C 317.240 179.850, 317.823 177.489, 317.521 177.187 C 316.761 176.427, 306.882 175.216, 307.240 175.926 M 484.500 180.686 C 446.152 183.179, 393.761 198.157, 362 215.708 C 329.903 233.444, 306.268 251.511, 281 277.625 C 266.715 292.388, 259.419 301.096, 248.845 316 C 233.048 338.267, 215.339 370.137, 216.491 374.228 C 216.913 375.726, 216.823 376.057, 216.226 375.201 C 215.592 374.291, 214.375 376.296, 212.161 381.900 C 210.422 386.300, 209 390.378, 209 390.963 C 209 391.548, 208.558 392.809, 208.018 393.764 C 204.811 399.436, 197.122 428.656, 194.141 446.500 C 189.564 473.899, 188.362 508.183, 191.039 535 C 198.915 613.881, 238.384 691.162, 298 744.428 C 345.360 786.743, 396.957 811.418, 459 821.423 C 488.588 826.194, 508.816 827.099, 537.500 824.936 C 648.066 816.599, 746.306 750.680, 798.234 649.984 C 817.058 613.481, 829.051 571.842, 833.070 529.030 C 835.455 503.621, 833.392 467, 828.029 439.531 C 816.221 379.054, 784.294 319.201, 740.527 275.492 C 724.768 259.753, 713.201 250.166, 694.961 237.725 C 675.004 224.113, 644.911 208.221, 626 201.308 C 622.975 200.202, 618.250 198.472, 615.500 197.463 C 612.750 196.454, 609.060 195.632, 607.300 195.637 C 605.541 195.642, 604.309 195.309, 604.563 194.898 C 606.122 192.376, 558.893 182.874, 535.605 181.024 C 523.759 180.083, 496.536 179.903, 484.500 180.686 M 763.741 188.250 C 761.264 191.137, 751.752 201.825, 742.603 212 C 728.080 228.150, 726.001 230.881, 726.233 233.500 C 726.459 236.041, 726.966 236.546, 729.548 236.798 C 732.332 237.071, 733.547 235.999, 743.548 224.453 L 754.500 211.810 760.500 212.451 C 763.800 212.803, 770.489 213.768, 775.365 214.596 C 783.582 215.991, 784.368 215.977, 786.115 214.396 C 788.283 212.434, 788.565 209.700, 786.750 208.236 C 786.063 207.682, 780.775 206.449, 775 205.498 C 769.225 204.546, 764.151 203.561, 763.725 203.310 C 763.299 203.058, 765.662 199.709, 768.975 195.869 C 775.022 188.860, 776.028 186.428, 773.800 184.200 C 771.324 181.724, 768.289 182.946, 763.741 188.250 M 501.100 189.250 L 501 192 493.250 192.051 C 488.988 192.079, 483.475 192.314, 481 192.573 C 432.263 197.678, 391.386 211.144, 351.896 235.104 C 330.007 248.384, 307.955 266.115, 288.434 286.129 C 236.190 339.694, 206.664 406.438, 201.562 482.500 C 196.842 552.882, 218.013 626.277, 259.830 684.500 C 274.020 704.256, 295.246 727.205, 313 741.985 C 323.239 750.508, 348.346 768.576, 354.050 771.526 C 355.618 772.337, 357.260 773.562, 357.700 774.250 C 358.140 774.937, 358.950 775.512, 359.500 775.526 C 360.050 775.540, 368.174 779.398, 377.554 784.099 C 399.519 795.107, 430.235 805.463, 451 808.861 C 472.297 812.346, 478.343 813.156, 490.275 814.122 C 518.100 816.374, 551.929 813.840, 580.500 807.363 C 601.462 802.611, 631.220 791.940, 650.466 782.275 C 692.356 761.239, 733.203 726.621, 761.706 688 C 777.348 666.805, 790.894 642.234, 801.401 616 C 804.789 607.541, 807.280 602.614, 808.073 602.806 C 809.038 603.040, 809.067 602.785, 808.195 601.735 C 807.321 600.682, 807.627 598.487, 809.491 592.417 C 818.981 561.516, 823.774 524.561, 822.665 490.851 C 821.109 443.524, 807.566 394.575, 784.507 352.924 C 781.451 347.405, 779.256 342.394, 779.630 341.790 C 780.003 341.186, 779.856 340.971, 779.302 341.313 C 778.749 341.655, 774.625 336.406, 770.138 329.647 C 733.051 273.791, 673.858 229.037, 608.500 207.441 C 578.229 197.438, 550.317 192.504, 518 191.443 C 503.066 190.952, 502.476 190.853, 501.850 188.717 C 501.259 186.705, 501.190 186.754, 501.100 189.250 M 229.500 214.713 C 219.393 215.664, 207.541 218.030, 206.208 219.363 C 205.320 220.252, 204.972 221.753, 205.327 223.168 C 205.650 224.454, 212.775 232.704, 221.161 241.503 C 245.764 267.316, 250.550 272, 252.323 272 C 253.245 272, 254.910 271.090, 256.023 269.977 C 257.727 268.273, 257.859 267.603, 256.859 265.727 C 256.206 264.502, 247.758 255.259, 238.086 245.188 C 228.414 235.116, 220.378 226.537, 220.228 226.123 C 220.079 225.709, 224.340 224.858, 229.698 224.231 L 239.439 223.091 252.470 235.761 C 259.636 242.730, 266.272 249.199, 267.216 250.137 C 271.387 254.285, 277 253.089, 277 248.054 C 277 246.030, 276.037 244.377, 273.750 242.475 C 271.962 240.988, 264.547 233.973, 257.271 226.886 L 244.042 214 238.771 214.168 C 235.872 214.261, 231.700 214.506, 229.500 214.713 M 822.441 266.447 C 813.673 272.193, 802.178 279.606, 796.895 282.920 C 784.911 290.438, 784.235 291.184, 786.405 294.495 C 787.308 295.873, 788.869 297, 789.874 297 C 791.496 297, 813.939 282.990, 826 274.448 C 828.475 272.696, 831.492 270.748, 832.704 270.120 C 834.851 269.008, 834.897 269.102, 834.468 273.739 C 833.150 288, 833.205 294.063, 834.666 295.523 C 838.688 299.545, 841.587 295.411, 842.394 284.500 C 842.720 280.100, 843.280 272.575, 843.640 267.779 C 844.326 258.602, 843.537 256, 840.068 256 C 839.140 256, 831.208 260.701, 822.441 266.447 M 509 269.812 C 509 271.055, 491.767 282.006, 480 288.240 C 460.229 298.716, 436.484 306.060, 406.621 310.937 C 396.654 312.564, 384.371 314.200, 379.325 314.571 L 370.149 315.246 369.747 322.873 C 369.004 336.952, 369.232 379.391, 370.110 390.500 C 372.322 418.466, 378.537 448.618, 386.481 469.926 C 392.227 485.336, 393.046 486.997, 394.911 487.015 C 396.214 487.028, 396.250 487.189, 395.109 487.912 C 393.993 488.618, 394.853 490.946, 399.442 499.646 C 409.407 518.539, 420.315 533.266, 434.465 546.930 C 440.656 552.909, 442.357 554.081, 443.174 552.930 C 443.990 551.780, 444.079 551.841, 443.628 553.244 C 442.571 556.531, 469.029 575.420, 494.988 589.912 C 502.957 594.360, 510.314 598, 511.338 598 C 514.051 598, 537.448 585.063, 552.500 575.240 C 566.476 566.119, 575.650 559.208, 583.324 552.019 C 585.976 549.534, 588.518 547.365, 588.972 547.200 C 590.447 546.665, 605.587 528.712, 611.383 520.625 C 626.872 499.018, 639.314 470.642, 645.858 442 C 652.886 411.244, 656.535 361.391, 654.360 325.845 L 653.719 315.378 641.110 314.229 C 595.091 310.033, 553.263 296.256, 521.760 274.920 C 513.858 269.567, 509 267.623, 509 269.812 M 166.308 293.988 C 147.885 302.913, 146.868 306.132, 160.288 313.051 C 164.805 315.379, 173.263 320.370, 179.083 324.142 C 184.904 327.914, 189.990 331, 190.385 331 C 190.781 331, 194.711 332.800, 199.119 334.999 C 208.216 339.539, 211 339.299, 211 333.974 C 211 331.225, 210.282 330.659, 200.750 325.894 C 195.113 323.076, 190.374 320.658, 190.220 320.522 C 190.066 320.385, 189.061 314.474, 187.986 307.387 C 186.912 300.299, 185.658 293.150, 185.200 291.500 C 183.877 286.731, 180.324 287.199, 166.308 293.988 M 170.500 301.550 C 167.750 302.866, 165.569 304.249, 165.653 304.622 C 165.832 305.414, 179.198 314.136, 179.606 313.727 C 180.378 312.955, 177.490 299.011, 176.572 299.079 C 175.983 299.122, 173.250 300.234, 170.500 301.550 M 853.037 337.688 C 852.456 338.685, 847.883 347.804, 842.874 357.954 C 833.545 376.859, 833.291 377.888, 837.317 380.428 C 838.504 381.177, 839.496 381.177, 840.683 380.428 C 842.771 379.111, 842.472 379.650, 851.287 361.342 L 858.585 346.184 875.042 354.588 C 884.094 359.210, 892.007 362.993, 892.628 362.996 C 894.626 363.003, 896.242 360.099, 895.619 357.618 C 895.135 355.691, 891.370 353.343, 876.757 345.855 C 866.716 340.710, 857.509 336.360, 856.297 336.188 C 854.978 336.001, 853.670 336.603, 853.037 337.688 M 450.934 348.297 C 445.453 349.717, 445.281 351.113, 444.671 399 C 444.063 446.780, 444.144 447.691, 449.888 457.168 C 453.713 463.480, 467.156 480.447, 473.816 487.369 C 482.661 496.563, 508.671 517, 511.526 517 C 512.702 517, 525.527 507.594, 530.262 503.258 C 532.974 500.774, 535.516 499.201, 536.167 499.603 C 536.797 499.993, 537.038 499.870, 536.704 499.330 C 536.371 498.792, 539.496 495.010, 543.647 490.926 C 559.544 475.288, 572.518 457.642, 575.527 447.568 C 576.724 443.560, 577 434.647, 577 399.943 C 577 376.462, 576.713 355.813, 576.361 354.057 C 575.043 347.463, 577.082 347.670, 512.422 347.581 C 480.296 347.536, 452.626 347.859, 450.934 348.297 M 122.200 373.200 C 120.207 375.193, 120.788 377.547, 125.722 387.479 L 130.443 396.984 126.972 399.923 C 125.062 401.539, 120.495 404.805, 116.823 407.181 C 113.151 409.556, 109.927 411.998, 109.660 412.607 C 108.628 414.952, 111.530 418.471, 115.023 419.108 C 120.128 420.040, 146.026 426.724, 157 429.942 C 162.225 431.474, 168.188 433.034, 170.251 433.409 C 173.646 434.026, 174.116 433.838, 175.215 431.428 C 176.272 429.108, 176.168 428.555, 174.406 427.133 C 173.293 426.235, 166.617 423.947, 159.569 422.048 C 148.117 418.963, 146.660 418.322, 145.856 416.017 C 145.362 414.599, 143.671 410.752, 142.099 407.469 L 139.240 401.500 146.757 394.372 L 154.275 387.245 167.887 390.641 C 184.071 394.679, 187.362 394.698, 187.816 390.758 C 188.055 388.682, 187.570 387.770, 185.816 386.997 C 182.502 385.538, 128.081 372, 125.529 372 C 124.358 372, 122.860 372.540, 122.200 373.200 M 134.732 387 C 135.596 389.200, 136.594 391, 136.949 391 C 137.304 391, 139.373 389.087, 141.547 386.750 C 143.721 384.413, 144.903 383.007, 144.173 383.627 C 143.288 384.379, 141.621 384.470, 139.173 383.901 C 133.143 382.500, 133.003 382.598, 134.732 387 M 128.196 409.911 L 124.892 412.735 129.317 413.850 C 131.751 414.463, 134.475 415.245, 135.370 415.589 C 136.793 416.134, 136.753 415.667, 135.056 411.875 C 133.988 409.490, 132.751 407.436, 132.307 407.312 C 131.863 407.188, 130.013 408.358, 128.196 409.911 M 906.372 424.169 C 895.649 431.672, 888.963 437.131, 889.477 437.962 C 890.246 439.206, 882.625 437.270, 875.738 434.472 C 872.305 433.077, 868.771 432.255, 867.685 432.600 C 866.590 432.947, 866.001 432.807, 866.329 432.277 C 866.647 431.762, 863.726 429.866, 859.838 428.064 C 852.781 424.795, 852.763 424.792, 850.779 426.777 C 847.483 430.073, 849.244 432.794, 856.852 436.156 C 860.508 437.771, 864.400 439.526, 865.500 440.056 C 866.600 440.585, 869.910 441.857, 872.855 442.882 L 878.210 444.745 874.270 447.622 C 858.642 459.035, 856 461.331, 856 463.500 C 856 466.451, 858.362 468.337, 861.007 467.498 C 862.163 467.131, 868.685 462.605, 875.500 457.441 L 887.892 448.052 897.696 452.128 C 903.088 454.370, 909.272 457.058, 911.438 458.102 C 916.499 460.542, 918.663 460.499, 920.036 457.933 C 922.050 454.170, 919.056 451.601, 907.161 446.884 L 896.223 442.546 900.115 439.684 C 902.256 438.109, 903.711 436.342, 903.349 435.756 C 902.965 435.135, 903.164 434.983, 903.826 435.393 C 904.450 435.778, 907.445 434.219, 910.481 431.927 C 914.903 428.588, 916 427.194, 916 424.915 C 916 419.735, 913.038 419.506, 906.372 424.169 M 101.205 480.195 C 99.009 482.391, 99.887 485.761, 103.413 488.677 C 105.290 490.230, 108.704 493.863, 110.999 496.752 L 115.173 502.004 110.646 508.348 C 108.156 511.837, 104.967 515.447, 103.559 516.369 C 100.749 518.211, 100.135 522.037, 102.354 523.879 C 104.065 525.299, 164.676 526.207, 167.250 524.851 C 169.356 523.742, 169.554 519.705, 167.583 518.069 C 166.603 517.256, 161.814 516.986, 152.081 517.196 C 143.164 517.389, 137.990 517.133, 137.979 516.500 C 137.969 515.950, 135.495 512.217, 132.481 508.204 C 129.466 504.191, 127 500.659, 127 500.355 C 127 500.050, 128.639 497.146, 130.642 493.901 L 134.284 488 149.577 488 C 166.646 488, 170 487.285, 170 483.647 C 170 482.326, 169.438 480.785, 168.750 480.223 C 166.840 478.662, 102.765 478.635, 101.205 480.195 M 117.022 487.923 C 117.034 488.240, 117.822 489.503, 118.772 490.729 L 120.500 492.959 121.612 490.573 C 122.632 488.384, 122.486 488.152, 119.862 487.766 C 118.288 487.535, 117.010 487.606, 117.022 487.923 M 857.765 511.617 C 856.719 513.912, 856.844 514.456, 858.780 516.023 C 861.170 517.958, 866.141 518.849, 880.154 519.854 L 889.160 520.500 891.018 525.786 C 893.640 533.243, 899.100 545.175, 900.841 547.250 C 903.122 549.968, 905.419 549.339, 908.139 545.250 C 909.511 543.188, 913.946 536.680, 917.995 530.790 C 924.740 520.977, 925.260 519.867, 924.200 517.540 C 923.199 515.342, 922.401 514.997, 918.271 514.980 C 915.647 514.969, 910.575 514.522, 907 513.987 C 896.550 512.423, 866.022 509.869, 865.039 510.476 C 864.543 510.782, 863.856 510.575, 863.510 510.016 C 862.297 508.054, 858.965 508.982, 857.765 511.617 M 117.862 513.771 L 115.224 517.500 120.612 517.157 C 123.575 516.969, 126 516.589, 126 516.312 C 126 515.387, 121.873 510, 121.182 510.021 C 120.807 510.033, 119.313 511.721, 117.862 513.771 M 899.625 523.421 C 899.983 524.564, 901.227 527.636, 902.388 530.247 L 904.500 534.995 908.315 529.491 C 910.937 525.708, 911.718 523.872, 910.815 523.618 C 910.092 523.416, 907.132 522.821, 904.237 522.296 C 899.169 521.377, 898.998 521.418, 899.625 523.421 M 157.701 574.632 C 157.353 574.980, 155.418 578.783, 153.399 583.084 L 149.730 590.903 142.496 586.933 C 138.337 584.651, 134.586 583.222, 133.674 583.572 C 132.075 584.185, 123.519 597.917, 118.534 607.871 C 115.676 613.577, 115.717 617.294, 118.650 618.419 C 119.570 618.772, 130.661 615.860, 143.408 611.919 C 178.243 601.149, 183.368 599.323, 184.797 597.175 C 187.980 592.391, 183.100 586.782, 168.749 578.726 C 160.306 573.988, 158.876 573.457, 157.701 574.632 M 847.667 581.667 C 846.548 582.785, 846.923 586.695, 848.250 587.744 C 849.540 588.764, 863.014 593.291, 875.750 596.983 C 879.737 598.139, 883 599.247, 883 599.446 C 883 599.645, 879.288 602.172, 874.750 605.062 C 870.212 607.951, 864.820 611.626, 862.767 613.228 L 859.034 616.141 849.095 612.884 C 840.757 610.151, 838.902 609.837, 837.578 610.935 C 835.327 612.804, 835.629 615.713, 838.250 617.411 C 840.162 618.650, 869.895 628.805, 891.991 635.768 C 899.250 638.055, 902 637.456, 902 633.587 C 902 630.402, 900.891 629.726, 890.500 626.578 C 878.205 622.853, 869.990 619.855, 870.052 619.116 C 870.080 618.777, 875.532 614.950, 882.167 610.610 L 894.230 602.720 901.725 605.070 C 909.055 607.369, 909.249 607.379, 910.610 605.519 C 913.948 600.953, 911.625 599.217, 896 594.604 C 889.125 592.575, 876.643 588.683, 868.262 585.957 C 853.576 581.179, 849.089 580.245, 847.667 581.667 M 158.779 591.997 C 156.742 595.849, 155.491 599, 156 599 C 156.509 599, 159.304 598.126, 162.212 597.059 C 165.121 595.991, 169.188 594.816, 171.250 594.447 C 173.313 594.079, 174.987 593.490, 174.972 593.139 C 174.950 592.640, 165.608 586.473, 163.018 585.247 C 162.724 585.108, 160.817 588.146, 158.779 591.997 M 132.502 600.995 L 128.980 607.990 135.740 605.379 C 139.458 603.943, 143.799 602.474, 145.387 602.116 L 148.273 601.464 142.652 597.732 C 139.560 595.679, 136.805 594, 136.528 594 C 136.251 594, 134.440 597.148, 132.502 600.995 M 501.750 628.789 C 495.074 629.009, 493 629.408, 493 630.472 C 493 631.238, 493.912 632.155, 495.027 632.508 C 499.214 633.837, 500.085 636.942, 499.783 649.458 L 499.500 661.166 484.963 645.333 L 470.426 629.500 463.713 629.204 C 458.433 628.972, 457 629.213, 457 630.333 C 457 631.116, 458.391 632.334, 460.091 633.038 C 461.791 633.742, 463.541 635.259, 463.979 636.409 C 464.417 637.559, 464.845 645.188, 464.930 653.362 C 465.095 669.318, 464.166 673, 459.977 673 C 458.886 673, 458 673.672, 458 674.500 C 458 675.728, 459.722 676, 467.500 676 C 474.949 676, 477 675.700, 477 674.608 C 477 673.843, 475.892 672.939, 474.537 672.599 C 471.031 671.719, 469.819 666.571, 470.190 654.137 L 470.500 643.775 484.488 659.428 C 492.181 668.038, 499.418 675.699, 500.570 676.454 C 504.742 679.187, 505.178 677.440, 505.076 658.388 C 504.967 638.148, 505.488 635.055, 509.315 633.195 C 510.792 632.478, 511.993 631.578, 511.985 631.195 C 511.937 629.045, 509.728 628.525, 501.750 628.789 M 596.489 629.326 C 584.880 633.853, 579.185 642.898, 580.278 655.072 C 581.525 668.966, 590.744 677.163, 605.073 677.117 C 620.155 677.070, 631.035 666.278, 630.902 651.500 C 630.872 648.200, 630.305 644, 629.640 642.166 C 627.906 637.376, 621.489 631.355, 616.197 629.552 C 610.906 627.749, 600.830 627.633, 596.489 629.326 M 352 630.281 C 352 630.985, 353.350 632.071, 355 632.694 C 357.925 633.798, 358.001 633.997, 358.033 640.663 C 358.051 644.423, 358.326 651.882, 358.644 657.238 C 359.346 669.059, 358.790 671.764, 355.485 672.593 C 354.118 672.936, 353 673.843, 353 674.608 C 353 675.709, 355.197 676, 363.500 676 C 369.275 676, 374 675.679, 374 675.288 C 374 674.896, 372.780 673.603, 371.290 672.414 C 368.891 670.501, 368.533 669.434, 368.177 663.127 L 367.774 656 370.810 656 C 373.505 656, 374.329 656.802, 378.173 663.168 C 383.773 672.444, 388.325 676.133, 394.961 676.770 C 401.144 677.364, 401.735 675.561, 396.631 671.668 C 394.779 670.255, 390.978 665.499, 388.185 661.100 C 383.748 654.113, 383.332 653.029, 384.895 652.533 C 391.155 650.547, 394.134 639.954, 389.930 634.629 C 386.165 629.858, 382.597 629, 366.532 629 C 355.387 629, 352 629.299, 352 630.281 M 402 630.392 C 402 631.157, 403.075 632.053, 404.390 632.383 C 407.261 633.104, 407.581 634.989, 407.892 653 C 408.149 667.913, 409.415 671.482, 415.500 674.453 C 424.744 678.967, 437.017 677.162, 442.939 670.417 C 446.761 666.064, 446.912 665.319, 447.246 649.147 C 447.519 635.933, 447.551 635.770, 450.261 633.609 C 454.948 629.872, 453.858 629, 444.500 629 C 437.611 629, 436 629.284, 436 630.500 C 436 631.325, 436.605 632, 437.345 632 C 438.085 632, 439.435 632.823, 440.345 633.829 C 442.657 636.384, 442.765 660.621, 440.483 665.033 C 438.293 669.269, 433.717 671.323, 427.751 670.750 C 419.279 669.936, 418.622 668.600, 417.907 650.730 C 417.573 642.354, 417.506 634.934, 417.760 634.241 C 418.013 633.549, 419.296 632.713, 420.610 632.383 C 421.925 632.053, 423 631.157, 423 630.392 C 423 629.291, 420.803 629, 412.500 629 C 404.197 629, 402 629.291, 402 630.392 M 516 630.525 C 516 631.363, 517.112 632.472, 518.472 632.989 C 519.832 633.506, 521.198 634.958, 521.508 636.215 C 521.818 637.472, 521.943 645.694, 521.786 654.488 L 521.500 670.475 518.750 671.792 C 517.237 672.517, 516 673.760, 516 674.555 C 516 675.768, 519.272 676, 536.369 676 L 556.738 676 557.358 672.250 C 558.495 665.373, 558.174 663, 556.108 663 C 554.919 663, 553.981 663.939, 553.582 665.531 C 552.610 669.401, 547.491 671.992, 540.807 671.996 C 533.391 672.001, 532 670.229, 532 660.777 L 532 654 537.759 654 C 542.436 654, 543.754 654.376, 544.768 656 C 545.455 657.100, 546.688 658, 547.508 658 C 548.665 658, 549 656.652, 549 652 C 549 648.700, 549.034 645.674, 549.075 645.275 C 549.295 643.147, 546.899 644.295, 545.508 646.985 C 543.958 649.981, 543.687 650.086, 538.199 649.798 L 532.500 649.500 532.208 641.750 L 531.916 634 536.208 633.885 C 538.569 633.822, 541.400 633.863, 542.500 633.978 C 544.947 634.232, 548 636.828, 548 638.655 C 548 639.395, 548.900 640, 550 640 C 551.758 640, 552 639.333, 552 634.500 L 552 629 545.441 629 C 540.484 629, 539.054 629.305, 539.588 630.250 C 540.152 631.250, 540.024 631.250, 538.947 630.250 C 538.042 629.410, 534.055 629, 526.800 629 C 517.789 629, 516 629.253, 516 630.525 M 634 630.315 C 634 631.038, 635.575 632.381, 637.500 633.299 L 641 634.968 640.986 651.234 C 640.979 660.180, 640.700 668.517, 640.367 669.761 C 640.029 671.021, 638.707 672.286, 637.381 672.619 C 636.071 672.948, 635.001 673.956, 635.003 674.858 C 635.006 676.271, 636.537 676.521, 646.003 676.653 C 656.201 676.795, 657 676.668, 657 674.903 C 657 673.678, 656.300 673, 655.035 673 C 652.077 673, 651 669.936, 651 661.516 L 651 653.900 656.750 654.200 C 661.601 654.453, 662.654 654.852, 663.487 656.750 C 664.030 657.987, 665.268 659, 666.237 659 C 667.752 659, 668 658.022, 668 652.059 C 668 644.661, 666.857 642.508, 664.900 646.222 C 663.231 649.391, 662.089 649.969, 657.500 649.969 C 651.323 649.969, 650.866 649.312, 651.203 640.912 L 651.500 633.500 657.500 633.772 C 662.745 634.010, 663.824 634.419, 666.073 637.022 C 669.883 641.432, 671 640.860, 671 634.500 L 671 629 652.500 629 C 637.880 629, 634 629.276, 634 630.315 M 601.500 632.716 C 598.849 633.357, 595.190 636.791, 593.204 640.500 C 590.645 645.281, 590.994 657.358, 593.861 663.243 C 599.749 675.328, 612.283 676.031, 617.617 664.576 C 623.143 652.708, 618.641 636.825, 608.685 633.064 C 605.752 631.956, 604.828 631.911, 601.500 632.716 M 368 642 L 368 651 372.500 651 C 378.573 651, 381 648.561, 381 642.455 C 381 636.363, 377.815 633, 372.045 633 L 368 633 368 642 M 171 661.843 C 148.151 673.237, 143.445 675.941, 143.173 677.833 C 142.808 680.381, 144.541 683, 146.593 683 C 147.335 683, 156.505 678.743, 166.971 673.540 C 177.437 668.338, 186 664.331, 186 664.636 C 186 664.941, 185.179 666.386, 184.175 667.846 C 179.686 674.372, 172.574 687.900, 166.958 700.596 C 161.834 712.177, 161.024 714.758, 161.906 716.694 C 163.105 719.324, 166.479 719.742, 169.527 717.639 C 170.612 716.890, 174.875 714.458, 179 712.234 C 212.504 694.167, 218.731 690.676, 220.407 689.017 C 222.213 687.231, 222.225 686.992, 220.634 684.565 C 219.710 683.154, 218.471 682, 217.881 682 C 217.291 682, 213.139 683.977, 208.654 686.394 C 192.796 694.940, 176.698 703.031, 176.315 702.649 C 175.615 701.948, 184.372 684.783, 193.268 669.420 C 198.071 661.126, 202 653.453, 202 652.370 C 202 650.501, 200.235 647.925, 199.050 648.065 C 198.748 648.100, 186.125 654.300, 171 661.843 M 809.797 675.546 C 808.785 677.767, 808.948 678.390, 811.069 680.432 C 814.507 683.742, 833.077 696, 834.652 696 C 835.372 696, 836.200 697.013, 836.491 698.250 C 836.781 699.487, 838.145 705.675, 839.522 712 C 840.899 718.325, 842.260 724.540, 842.547 725.811 C 842.980 727.728, 843.617 728.069, 846.284 727.811 C 849.411 727.509, 849.502 727.364, 849.589 722.607 C 849.637 719.916, 848.865 714.291, 847.873 710.107 C 845.488 700.055, 845.420 700.243, 849.968 704.352 C 852.151 706.324, 856.462 709.614, 859.548 711.663 C 865.744 715.777, 868.232 715.525, 868.809 710.726 C 869.068 708.573, 868.172 707.511, 863.309 704.199 C 860.114 702.023, 856.662 699.310, 855.638 698.169 C 853.802 696.124, 853.816 696.085, 856.638 695.447 C 874.526 691.400, 875 691.210, 875 688.084 C 875 683.911, 872.977 682.660, 868.277 683.925 C 866.145 684.499, 859.049 686.079, 852.509 687.436 L 840.616 689.902 832.544 685.027 C 828.105 682.345, 822.454 678.546, 819.986 676.585 C 814.603 672.306, 811.421 671.982, 809.797 675.546 M 328.569 694.764 C 327.476 695.857, 328.011 698, 329.378 698 C 332.832 698, 333.436 700.887, 333.195 716.241 C 333.065 724.500, 332.717 731.649, 332.420 732.129 C 332.124 732.608, 331.009 733, 329.941 733 C 328.873 733, 328 733.675, 328 734.500 C 328 735.680, 329.494 736.024, 335 736.111 C 348.120 736.319, 348 736.330, 348 734.975 C 348 734.412, 346.899 733.532, 345.554 733.020 C 343.022 732.058, 342.406 730.149, 341.757 721.250 L 341.447 717 347.205 717 C 352.512 717, 353.011 717.195, 353.589 719.500 C 354.718 723.997, 356.999 722.499, 357.014 717.250 C 357.021 714.638, 357.299 711.487, 357.630 710.250 C 358.084 708.559, 357.809 708, 356.523 708 C 355.582 708, 354.576 708.905, 354.287 710.011 C 353.998 711.117, 352.759 712.273, 351.535 712.581 C 348.604 713.316, 341.431 712.708, 341.750 711.750 C 341.887 711.337, 342 708.108, 342 704.572 L 342 698.145 347.750 698.708 C 354.355 699.356, 357 700.451, 357 702.535 C 357 703.341, 357.675 704, 358.500 704 C 359.611 704, 360 702.833, 360 699.500 L 360 695 350.750 694.895 C 345.663 694.838, 338.718 694.657, 335.319 694.493 C 331.919 694.329, 328.882 694.452, 328.569 694.764 M 380.500 695.147 C 371.785 698.367, 367.059 705.450, 367.022 715.349 C 366.995 722.422, 368.895 726.769, 374.046 731.423 C 378.624 735.559, 384.582 737.365, 391.698 736.775 C 411.685 735.118, 419.368 708.967, 403.211 697.587 C 399.651 695.080, 397.989 694.629, 391.287 694.356 C 387.004 694.181, 382.150 694.537, 380.500 695.147 M 417.250 694.596 C 415.559 695.368, 415.658 698, 417.378 698 C 420.219 698, 420.916 700.775, 421.035 712.551 C 421.230 731.844, 421.235 731.790, 419 732.500 C 417.900 732.849, 417 733.779, 417 734.567 C 417 735.705, 418.855 736, 426 736 C 433.333 736, 435 735.722, 435 734.500 C 435 733.675, 434.341 733, 433.535 733 C 431.256 733, 430 729.647, 430 723.566 C 430 718.281, 430.128 718, 432.525 718 C 434.473 718, 435.671 719.064, 437.775 722.659 C 443.664 732.728, 448.930 737, 455.450 737 C 459.951 737, 460.022 735.316, 455.670 731.843 C 453.839 730.382, 450.521 726.286, 448.299 722.740 L 444.257 716.295 447.490 713.715 C 453.728 708.738, 452.544 699.396, 445.286 696.327 C 441.483 694.719, 419.898 693.386, 417.250 694.596 M 460.523 697.250 C 460.235 698.763, 459.739 701.350, 459.421 703 C 458.643 707.027, 461.379 707.101, 463.444 703.108 C 464.894 700.305, 469.273 698, 473.149 698 C 474.871 698, 475 699.085, 475 713.566 C 475 728.954, 474.286 733, 471.572 733 C 470.825 733, 469.955 733.675, 469.638 734.500 C 469.150 735.772, 470.581 736, 479.031 736 C 487.226 736, 489 735.733, 489 734.500 C 489 733.675, 488.148 733, 487.107 733 C 486.066 733, 484.941 732.288, 484.607 731.418 C 484.273 730.548, 484 722.623, 484 713.807 L 484 697.777 487.750 698.473 C 491.861 699.236, 494.625 701.243, 495.542 704.132 C 495.868 705.159, 496.822 706, 497.661 706 C 498.926 706, 499.066 705.099, 498.481 700.750 C 498.092 697.862, 497.704 695.417, 497.619 695.316 C 497.534 695.214, 489.271 694.989, 479.256 694.816 L 461.046 694.500 460.523 697.250 M 540.807 694.781 C 527.956 695.090, 528.794 694.622, 527.442 702.250 C 526.593 707.039, 527.957 707.100, 532.237 702.465 C 534.444 700.074, 536.714 698.738, 539.250 698.334 L 543 697.738 543 712.804 C 543 729.086, 542.230 733, 539.025 733 C 537.892 733, 537 733.661, 537 734.500 C 537 735.733, 538.778 736, 547 736 C 554.388 736, 557 735.670, 557 734.737 C 557 734.043, 555.987 733.030, 554.750 732.487 C 552.561 731.527, 552.493 731.041, 552.225 714.634 L 551.951 697.768 555.725 698.469 C 559.859 699.236, 562.624 701.239, 563.542 704.132 C 563.868 705.159, 564.779 706, 565.567 706 C 567.047 706, 567.540 700.611, 566.435 696.500 C 565.841 694.289, 564.640 694.208, 540.807 694.781 M 579.250 694.790 C 573.156 695.005, 571 695.432, 571 696.424 C 571 697.162, 571.832 697.984, 572.848 698.250 C 575.305 698.892, 576 702.847, 576 716.175 C 576 732.558, 579.029 736.399, 592 736.466 C 599.571 736.506, 604.186 734.331, 607.747 729.048 C 609.771 726.044, 610 724.495, 610 713.786 C 610 701.912, 610.849 698, 613.428 698 C 614.175 698, 615.045 697.325, 615.362 696.500 C 615.844 695.244, 614.641 695, 607.969 695 C 601.724 695, 600 695.310, 600 696.430 C 600 697.217, 600.994 698.005, 602.209 698.180 C 605.025 698.588, 605.780 701.330, 605.876 711.500 C 606.015 726.142, 603.843 730.512, 595.881 731.603 C 591.741 732.170, 590.958 731.935, 587.897 729.199 L 584.503 726.167 584.150 714.208 C 583.788 701.971, 584.618 698, 587.535 698 C 589.027 698, 589.616 695.372, 588.250 694.809 C 587.837 694.639, 583.788 694.631, 579.250 694.790 M 504 696.430 C 504 697.217, 505.006 698.005, 506.237 698.180 C 509.031 698.580, 509.712 702.151, 509.931 717.554 C 510.108 730.028, 509.704 731.782, 506.364 733.052 C 501.441 734.923, 504.048 736, 513.500 736 C 521.278 736, 523 735.728, 523 734.500 C 523 733.675, 522.314 733, 521.475 733 C 518.755 733, 517.942 728.031, 518.224 713.117 C 518.494 698.816, 518.549 698.493, 520.750 698.180 C 521.987 698.005, 523 697.217, 523 696.430 C 523 695.290, 521.072 695, 513.500 695 C 505.928 695, 504 695.290, 504 696.430 M 618 696.185 C 618 696.942, 619.362 698.075, 621.026 698.704 L 624.052 699.846 623.776 715.673 C 623.509 731.001, 623.429 731.531, 621.250 732.487 C 620.013 733.030, 619 734.078, 619 734.817 C 619 735.887, 621.591 736.092, 631.784 735.829 C 643.163 735.536, 645.112 735.219, 649.525 732.945 C 656.574 729.313, 660.173 723.277, 660.134 715.153 C 660.092 706.419, 657.112 701.664, 649 697.389 C 644.370 694.950, 618 693.925, 618 696.185 M 663 695.885 C 663 696.372, 664.136 697.515, 665.525 698.425 L 668.050 700.079 667.775 715.790 C 667.509 730.997, 667.428 731.532, 665.250 732.487 C 664.013 733.030, 663 734.043, 663 734.737 C 663 735.706, 667.046 736, 680.369 736 L 697.738 736 698.358 732.250 C 699.722 724, 698.111 722.538, 694.241 728.512 C 691.917 732.100, 690.430 732.543, 682.500 732.011 C 677.829 731.697, 677 730.396, 677 723.378 L 677 717 682.021 717 C 686.407 717, 687.187 717.316, 688.182 719.500 C 688.808 720.875, 689.924 722, 690.661 722 C 692.613 722, 692.548 709.424, 690.592 708.674 C 689.692 708.328, 688.963 709.011, 688.573 710.567 C 688.019 712.774, 687.453 713, 682.481 713 L 677 713 677 706 L 677 699 682.547 699 C 687.661 699, 688.226 699.233, 689.797 701.994 C 692.403 706.574, 694 705.817, 694 700 L 694 695 678.500 695 C 669.975 695, 663 695.398, 663 695.885 M 382.743 699.084 C 377.131 702.352, 375.091 715.896, 378.910 724.529 C 383.643 735.229, 396.296 735.716, 400.621 725.364 C 402.243 721.483, 402.411 713.021, 400.970 707.832 C 399.452 702.365, 393.984 697.992, 388.715 698.030 C 386.397 698.047, 383.709 698.521, 382.743 699.084 M 430 705.868 L 430 714 433.066 714 C 436.288 714, 439.995 712.457, 441.235 710.600 C 441.639 709.995, 441.976 707.882, 441.985 705.905 C 442.004 701.400, 439.529 699.015, 434.078 698.284 L 430 697.737 430 705.868 M 633.667 698.667 C 632.417 699.917, 632.908 729.508, 634.200 730.800 C 636.339 732.939, 642.579 732.226, 645.857 729.467 C 649.665 726.263, 651.350 721.200, 650.793 714.638 C 650.141 706.961, 647.432 702.101, 642.576 699.895 C 638.375 697.987, 634.834 697.499, 633.667 698.667 M 236.534 744.203 C 228.852 744.704, 222.026 745.564, 221.364 746.113 C 219.845 747.374, 220.713 784.806, 222.309 786.815 C 223.139 787.861, 226.952 787.989, 240.927 787.438 C 251.151 787.034, 259.077 786.284, 259.879 785.643 C 261.757 784.143, 260.990 746.898, 259.032 744.539 C 257.628 742.846, 257.390 742.843, 236.534 744.203 M 757.655 747.829 C 756.745 748.835, 756 750.480, 756 751.486 C 756 752.501, 763.227 760.692, 772.254 769.907 C 781.194 779.033, 789.980 788.188, 791.778 790.250 C 795.299 794.288, 797.055 794.844, 798.974 792.531 C 800.448 790.755, 799.370 761.259, 797.758 759.250 C 797.206 758.563, 795.740 758, 794.500 758 C 790.646 758, 789.774 760.217, 790.290 768.708 L 790.762 776.490 775.915 761.245 C 767.749 752.860, 760.673 746, 760.189 746 C 759.706 746, 758.565 746.823, 757.655 747.829 M 240.250 753.373 L 230 754.273 230 766.136 L 230 778 241.113 778 L 252.226 778 251.556 765.276 C 251.187 758.278, 250.799 752.535, 250.693 752.513 C 250.587 752.491, 245.887 752.878, 240.250 753.373 M 306.755 791.192 C 293.563 811.615, 279 835.786, 279 837.259 C 279 837.588, 279.707 838.564, 280.571 839.429 C 283.747 842.604, 285.679 841.309, 291.061 832.399 L 296.256 823.798 300.045 832.983 C 302.129 838.034, 304.107 842.440, 304.441 842.774 C 304.774 843.108, 309.522 843.293, 314.991 843.185 L 324.936 842.990 319.407 852.064 C 316.253 857.242, 314.012 862.031, 314.190 863.217 C 314.558 865.682, 317.151 867.540, 319.150 866.773 C 320.339 866.316, 342.986 830.512, 351.093 816.272 C 353.770 811.570, 353.104 808.769, 349.169 808.183 C 347.510 807.936, 346.214 809.186, 343.271 813.873 C 341.197 817.177, 337.535 823.012, 335.134 826.840 L 330.768 833.801 320.829 834.512 C 315.363 834.903, 310.649 834.983, 310.355 834.688 C 310.060 834.393, 308.055 829.753, 305.900 824.376 L 301.982 814.600 309.056 802.769 C 316.697 789.990, 317.443 786.725, 312.842 786.192 C 310.593 785.932, 309.655 786.703, 306.755 791.192 M 683.631 803.855 C 681.581 806.121, 682.056 807.532, 687.551 815.483 C 689.838 818.792, 692.880 823.531, 694.311 826.014 L 696.914 830.528 694.486 843.514 C 691.733 858.242, 691.489 862.089, 693.200 863.800 C 694.755 865.355, 696.185 865.316, 698.455 863.657 C 699.769 862.696, 700.766 859.510, 701.958 852.458 L 703.625 842.602 708.799 851.167 C 714.884 861.242, 716.112 862.440, 719.487 861.593 C 723.251 860.648, 722.684 857.964, 716.500 847.456 C 713.475 842.317, 711 837.914, 711 837.672 C 711 837.430, 714.689 838.305, 719.199 839.616 C 729.225 842.531, 731.613 842.591, 733.020 839.962 C 734.815 836.609, 733.298 834.153, 728.690 832.954 C 726.385 832.355, 720.094 830.658, 714.708 829.185 L 704.917 826.505 696.997 814.253 C 688.733 801.468, 687.007 800.125, 683.631 803.855 M 391.275 829.202 C 390.075 830.686, 384.933 848.853, 378.826 873.180 C 375.264 887.373, 374.840 890.102, 375.984 891.481 C 378.198 894.149, 382.302 893.017, 383.166 889.500 C 384.080 885.781, 394.914 844.840, 395.314 843.592 C 395.474 843.093, 397.832 846.693, 400.553 851.592 C 406.670 862.606, 407.687 862.905, 417.343 856.523 C 425.008 851.457, 425.448 851.278, 424.156 853.750 C 423.653 854.712, 421.344 863.600, 419.025 873.500 C 416.706 883.400, 414.197 893.431, 413.451 895.790 C 411.918 900.636, 412.337 902.655, 415.055 903.517 C 419.585 904.955, 420.288 903.278, 427.837 873.037 C 431.835 857.018, 434.841 843.073, 434.515 842.048 C 434.190 841.023, 433.340 839.961, 432.626 839.687 C 431.912 839.413, 426.681 841.846, 421.002 845.094 C 415.322 848.342, 410.400 851, 410.064 851 C 409.728 851, 406.537 845.938, 402.973 839.750 C 396.457 828.436, 393.818 826.057, 391.275 829.202 M 608.250 834.641 C 606.259 835.478, 606.679 837.943, 612.500 859.634 C 615.525 870.905, 618 880.329, 618 880.577 C 618 881.182, 610.031 876.073, 607.436 873.805 C 605.057 871.726, 601.935 871.465, 600.200 873.200 C 597.675 875.725, 599.109 878.001, 606.750 883.594 C 611.013 886.715, 617.089 891.490, 620.254 894.206 C 623.419 896.923, 626.746 899, 627.647 898.822 C 630.833 898.195, 631.446 895.561, 629.731 889.864 C 628.842 886.914, 625.028 873.250, 621.254 859.500 C 614.743 835.776, 614.268 834.490, 611.946 834.307 C 610.601 834.201, 608.938 834.351, 608.250 834.641 M 498.200 848.200 C 496.483 849.917, 496.483 913.083, 498.200 914.800 C 499.891 916.491, 502.515 916.290, 504.128 914.345 C 505.231 913.014, 505.438 907.677, 505.181 887.095 L 504.862 861.500 515.360 871.911 L 525.858 882.323 528.429 880.638 C 529.843 879.712, 531 878.194, 531 877.265 C 531 875.171, 502.994 847, 500.912 847 C 500.080 847, 498.860 847.540, 498.200 848.200" stroke="none" fill="#040404" fill-rule="evenodd"/></svg>